<svg xmlns="http://www.w3.org/2000/svg" version="1.1" xmlns:xlink="http://www.w3.org/1999/xlink" xmlns:svgjs="http://svgjs.dev/svgjs" viewBox="0 0 1422 800"><defs><filter id="uuunion-blur" x="-100%" y="-100%" width="400%" height="400%" color-interpolation-filters="sRGB">
        <feGaussianBlur in="SourceGraphic" stdDeviation="7.5 0" result="blur"></feGaussianBlur>
        <feDropShadow stdDeviation="12.307692307692308" in="blur" dx="10" dy="10" flood-color="hsl(205, 69%, 40%)" flood-opacity="0.25" x="0%" y="0%" width="100%" height="100%"></feDropShadow>
      </filter><filter id="uuunion-blur2" x="-100%" y="-100%" width="400%" height="400%" color-interpolation-filters="sRGB">
        <feGaussianBlur in="SourceGraphic" stdDeviation="7.5 0" result="blur"></feGaussianBlur>
        <feDropShadow stdDeviation="12.307692307692308" in="blur" dx="-10" dy="-10" flood-color="hsl(205, 69%, 40%)" flood-opacity="0.25" x="0%" y="0%" width="100%" height="100%"></feDropShadow>
      </filter><linearGradient gradientTransform="rotate(0, 0.5, 0.5)" x1="50%" y1="0%" x2="50%" y2="100%" id="uuunion-grad"><stop stop-color="hsl(205, 69%, 80%)" offset="10%"></stop><stop stop-color="hsl(205, 69%, 40%)" offset="90%"></stop></linearGradient><linearGradient gradientTransform="rotate(135, 0.5, 0.5)" x1="50%" y1="0%" x2="50%" y2="100%" id="uuunion-grad2"><stop stop-color="hsl(205, 69%, 80%)" offset="25%"></stop><stop stop-color="hsl(205, 69%, 40%)" offset="100%"></stop></linearGradient><linearGradient gradientTransform="rotate(333, 0.5, 0.5)" x1="50%" y1="0%" x2="50%" y2="100%" id="uuunion-grad3"><stop stop-color="hsl(205, 69%, 80%)" offset="0%"></stop><stop stop-color="hsl(205, 69%, 40%)" offset="75%"></stop></linearGradient></defs><path d="M-140.25 -88.08Q-126.98 -86.93 -113.71 -85.33 -100.44 -83.38 -87.17 -81.21 -73.9 -78.96 -60.64 -76.78 -47.37 -74.8 -34.1 -73.17 -20.83 -71.99 -7.56 -71.32 5.7 -71.23 18.97 -71.7 32.24 -72.72 45.51 -74.22 58.77 -76.09 72.04 -78.22 85.31 -80.46 98.58 -82.67 111.85 -84.71 125.12 -86.44 138.39 -87.75 151.66 -88.55 164.93 -88.79 178.2 -88.46 191.46 -87.57 204.73 -86.19 218 -84.4 231.27 -82.33 244.54 -80.1 257.81 -77.87 271.08 -75.77 284.35 -73.95 297.62 -72.53 310.88 -71.59 324.15 -71.2 337.42 -71.39 350.69 -72.14 363.96 -73.4 377.23 -75.1 390.5 -77.11 403.77 -79.32 417.04 -81.56 430.31 -83.71 443.57 -85.61 456.84 -87.14 470.11 -88.21 483.38 -88.74 496.65 -88.7 509.92 -88.09 523.19 -86.95 536.46 -85.36 549.73 -83.41 563 -81.24 576.26 -79 589.53 -76.81 602.8 -74.83 616.07 -73.2 629.34 -72 642.61 -71.33 655.88 -71.22 669.15 -71.69 682.42 -72.7 695.69 -74.19 708.95 -76.06 722.22 -78.18 735.49 -80.42 748.76 -82.64 762.03 -84.68 775.3 -86.42 788.57 -87.73 801.84 -88.54 815.11 -88.79 828.38 -88.47 841.64 -87.59 854.91 -86.22 868.18 -84.44 881.45 -82.37 894.72 -80.14 907.99 -77.9 921.26 -75.8 934.53 -73.98 947.8 -72.55 961.07 -71.6 974.33 -71.21 987.6 -71.38 1000.87 -72.12 1014.14 -73.38 1027.41 -75.07 1040.68 -77.08 1053.95 -79.28 1067.22 -81.52 1080.49 -83.67 1093.76 -85.58 1107.02 -87.12 1120.29 -88.2 1133.56 -88.74 1146.83 -88.71 1160.1 -88.11 1173.37 -86.97 1186.64 -85.39 1199.91 -83.45 1213.18 -81.28 1226.45 -79.03 1239.71 -76.85 1252.98 -74.87 1266.25 -73.22 1279.52 -72.02 1292.79 -71.34 1306.06 -71.22 1319.33 -71.68 1332.6 -72.68 1345.87 -74.16 1359.14 -76.02 1372.41 -78.14 1385.67 -80.39 1398.94 -82.6 1412.21 -84.65 1425.48 -86.39 1438.75 -87.71 1452.02 -88.53 1465.29 -88.79 1478.56 -88.48 1491.83 -87.61 1505.1 -86.25 1518.37 -84.47 1531.63 -82.4 1543.19 -71.53 1531.63 -47.84 1531.57 -32.78 1541.32 -17.73 1557.95 -2.68 1576.46 12.36 1591.28 27.42 1597.96 42.47 1594.47 57.52 1581.88 72.57 1563.97 87.63 1546.13 102.68 1533.72 117.73 1530.48 132.78 1537.38 147.84 1552.34 162.89 1570.87 177.94 1587.4 193 1596.94 208.05 1596.64 223.1 1586.57 238.15 1569.78 253.21 1551.31 268.26 1536.71 283.31 1530.38 298.36 1534.22 313.42 1547.08 328.47 1565.08 343.52 1582.82 358.57 1594.96 373.63 1597.84 388.68 1590.6 403.73 1575.42 418.78 1556.87 433.84 1540.51 448.89 1531.28 463.94 1531.95 478.99 1542.32 494.05 1559.27 509.1 1577.7 524.15 1592.06 539.2 1598.05 554.26 1593.85 569.31 1580.73 584.36 1562.64 599.41 1545.02 614.47 1533.16 629.52 1530.64 644.57 1538.21 659.62 1553.6 674.68 1572.17 689.73 1588.35 704.78 1597.26 719.83 1596.22 734.89 1585.55 749.94 1568.46 764.99 1550.08 780.04 1535.95 795.1 1530.31 810.15 1534.87 825.2 1548.24 840.25 1566.42 855.31 1568.7 871.57 1540.88 863.52 1527.22 859.91 1513.57 857.62 1499.91 856.8 1486.26 857.49 1472.6 859.65 1458.95 863.14 1445.29 867.73 1431.64 873.12 1417.99 878.96 1404.33 884.88 1390.68 890.47 1377.02 895.37 1363.37 899.28 1349.71 901.92 1336.06 903.13 1322.41 902.82 1308.75 901.03 1295.1 897.86 1281.44 893.52 1267.79 888.3 1254.13 882.53 1240.48 876.6 1226.83 870.89 1213.17 865.78 1199.52 861.59 1185.86 858.61 1172.21 857.03 1158.55 856.95 1144.9 858.37 1131.24 861.21 1117.59 865.27 1103.94 870.3 1090.28 875.96 1076.63 881.89 1062.97 887.69 1049.32 892.99 1035.66 897.44 1022.01 900.75 1008.36 902.7 994.7 903.17 981.05 902.12 967.39 899.63 953.74 895.85 940.08 891.04 926.43 885.51 912.78 879.61 899.12 873.74 885.47 868.28 871.81 863.59 858.16 859.96 844.5 857.65 830.85 856.8 817.2 857.46 803.54 859.6 789.89 863.07 776.23 867.64 762.58 873.03 748.92 878.87 735.27 884.78 721.62 890.38 707.96 895.3 694.31 899.22 680.65 901.89 667 903.12 653.34 902.84 639.69 901.07 626.04 897.92 612.38 893.6 598.73 888.39 585.07 882.63 571.42 876.7 557.76 870.98 544.11 865.86 530.46 861.66 516.8 858.65 503.15 857.04 489.49 856.94 475.84 858.33 462.18 861.15 448.53 865.2 434.88 870.21 421.22 875.86 407.57 881.79 393.91 887.59 380.26 892.9 366.6 897.37 352.95 900.7 339.3 902.68 325.64 903.17 311.99 902.15 298.33 899.68 284.68 895.93 271.03 891.13 257.37 885.6 243.72 879.71 230.06 873.84 216.41 868.37 202.75 863.66 189.1 860.02 175.45 857.68 161.79 856.8 148.14 857.44 134.48 859.55 120.83 863 107.17 867.56 93.52 872.93 79.87 878.77 66.21 884.68 52.56 890.29 38.9 895.22 25.25 899.16 11.59 901.85 -2.05 903.11 -15.7 902.86 -29.36 901.11 -43.01 897.98 -56.67 893.68 -70.32 888.48 -83.97 882.73 -97.63 876.8 -111.28 871.08 -124.94 865.94 -138.59 861.72 -152.25 858.69 -148.53 843.9 -142.9 829.1 -137.06 814.31 -132.76 799.52 -131.29 784.72 -133.11 769.93 -137.65 755.14 -143.56 740.34 -149.05 725.55 -152.48 710.76 -152.81 695.96 -149.95 681.17 -144.75 666.38 -138.78 651.58 -133.83 636.79 -131.4 622 -132.21 607.2 -136.02 592.41 -141.69 577.62 -147.5 562.82 -151.72 548.03 -153.07 533.24 -151.14 518.44 -146.53 503.65 -140.6 488.86 -135.15 474.06 -131.82 459.27 -131.61 444.48 -134.57 429.68 -139.83 414.89 -145.79 400.1 -150.67 385.3 -153 370.51 -152.07 355.72 -148.17 340.92 -142.47 326.13 -136.68 311.34 -132.55 296.54 -131.32 281.75 -133.35 266.96 -138.04 252.16 -143.98 237.37 -149.38 222.58 -152.61 207.78 -152.71 192.99 -149.64 178.2 -144.33 163.4 -138.37 148.61 -133.56 133.82 -131.35 119.02 -132.39 104.23 -136.38 89.44 -142.11 74.64 -147.87 59.85 -151.92 45.05 -153.04 30.26 -150.89 15.47 -146.13 0.67 -140.18 -14.11 -134.83 -28.9 -131.7 -43.7 -131.72 -58.49 -134.88 -73.28 -140.25 -88.08" fill="url(#uuunion-grad)"></path><path d="M-140.26 -88.08Q-134.89 -73.28 -131.73 -58.49 -131.71 -43.7 -134.84 -28.9 -140.19 -14.11 -146.14 0.67 -150.9 15.47 -153.05 30.26 -151.93 45.05 -147.88 59.85 -142.12 74.64 -136.39 89.43 -132.4 104.23 -131.36 119.02 -133.57 133.81 -138.38 148.61 -144.34 163.4 -149.65 178.19 -152.72 192.99 -152.62 207.78 -149.39 222.57 -143.99 237.37 -138.05 252.16 -133.36 266.95 -131.32 281.75 -132.56 296.54 -136.69 311.33 -142.48 326.13 -148.18 340.92 -152.08 355.72 -153.01 370.51 -150.68 385.3 -141.61 386.59 -132.55 388.27 -123.48 390.3 -114.41 392.6 -105.34 395.13 -96.27 397.79 -87.2 400.52 -78.13 403.23 -69.06 405.85 -59.99 408.29 -50.92 410.5 -41.85 412.4 -32.78 413.94 -23.71 415.07 -6.57 415.93 -3.55 415.98 7.31 412.32 18.28 407.96 29.37 402.97 40.55 397.43 51.83 391.45 63.18 385.17 74.61 378.73 86.1 372.29 97.63 365.98 109.2 359.96 120.78 354.36 132.37 349.28 143.95 344.81 155.51 341.01 167.05 337.89 178.54 335.47 189.98 333.7 201.37 332.52 212.69 331.83 223.95 331.53 235.13 331.48 246.25 331.54 257.31 331.56 268.3 331.41 279.23 330.95 290.11 330.07 300.94 328.66 311.74 326.65 322.51 323.99 333.27 320.66 344.03 316.69 354.79 312.11 365.58 306.99 376.4 301.42 387.27 295.53 398.19 289.43 409.18 283.26 420.24 277.16 431.38 271.27 442.61 265.7 453.93 260.57 465.34 255.97 476.84 251.95 488.44 248.56 500.12 245.8 511.88 243.65 523.72 242.06 535.62 240.96 547.57 240.26 559.55 239.84 571.56 239.57 583.58 239.34 595.59 239 607.58 238.44 619.52 237.53 631.4 236.18 643.2 234.31 654.9 231.87 666.5 228.83 677.97 225.2 689.31 220.99 700.49 216.27 711.52 211.1 722.38 205.59 733.08 199.84 743.61 193.98 753.96 188.13 764.16 182.41 774.19 176.93 784.08 171.82 793.83 167.14 803.47 162.97 813 159.35 822.45 156.3 831.83 153.81 841.18 151.85 850.52 150.37 859.87 149.28 869.27 148.49 878.72 147.89 888.28 147.36 897.95 146.79 907.77 146.07 917.75 145.08 927.93 143.73 938.32 141.95 948.93 139.67 959.79 136.86 970.9 133.52 982.27 129.64 993.9 125.29 1005.79 120.5 1017.95 115.37 1030.36 109.98 1043.01 104.44 1055.88 98.86 1068.96 93.35 1082.22 88.02 1095.64 82.97 1109.19 78.28 1122.83 74.02 1136.53 70.23 1150.27 66.95 1163.99 64.18 1177.66 61.89 1191.25 60.04 1204.72 58.58 1218.02 57.42 1231.14 56.47 1244.02 55.64 1256.65 54.81 1269 53.89 1281.03 52.77 1292.74 51.37 1304.09 49.61 1315.1 47.43 1325.74 44.79 1336.01 41.68 1345.93 38.1 1355.49 34.07 1364.71 29.63 1373.62 24.86 1382.23 19.83 1390.57 14.63 1398.68 9.34 1406.59 4.08 1414.35 -1.05 1422 -5.99 1403.78 -23.33 1392.96 -40.67 1393.91 -58.02 1406.25 -75.36 1424.98 -92.7 1442.5 -110.04 1451.7 -127.39 1448.85 -144.73 1436.25 -143.11 1423.65 -141.32 1411.05 -139.46 1398.45 -137.63 1385.85 -135.92 1373.25 -134.45 1360.65 -133.28 1348.05 -132.49 1335.45 -132.12 1322.85 -132.19 1310.25 -132.69 1297.65 -133.6 1285.05 -134.87 1272.45 -136.42 1259.85 -138.17 1247.25 -140.03 1234.65 -141.88 1222.05 -143.63 1209.45 -145.17 1196.84 -146.43 1184.24 -147.32 1171.64 -147.81 1159.04 -147.86 1146.44 -147.47 1133.84 -146.67 1121.24 -145.49 1108.64 -144.01 1096.04 -142.3 1083.44 -140.46 1070.84 -138.6 1058.24 -136.81 1045.64 -135.21 1033.04 -133.87 1020.44 -132.87 1007.84 -132.27 995.24 -132.1 982.64 -132.37 970.04 -133.07 957.44 -134.15 944.84 -135.56 932.24 -137.22 919.64 -139.03 907.04 -140.89 894.44 -142.71 881.84 -144.37 869.24 -145.79 856.64 -146.89 844.04 -147.6 831.44 -147.89 818.84 -147.74 806.24 -147.15 793.64 -146.17 781.04 -144.84 768.44 -143.24 755.84 -141.46 743.24 -139.6 730.64 -137.76 718.04 -136.04 705.44 -134.55 692.83 -133.36 680.23 -132.54 667.63 -132.13 655.03 -132.17 642.43 -132.64 629.83 -133.52 617.23 -134.77 604.63 -136.3 592.03 -138.04 579.43 -139.89 566.83 -141.75 554.23 -143.51 541.63 -145.07 529.03 -146.35 516.43 -147.27 503.83 -147.79 491.23 -147.87 478.63 -147.52 466.03 -146.74 453.43 -145.59 440.83 -144.12 428.23 -142.43 415.63 -140.6 403.03 -138.73 390.43 -136.94 377.83 -135.32 365.23 -133.95 352.63 -132.93 340.03 -132.3 327.43 -132.1 314.83 -132.34 302.23 -133 289.63 -134.06 277.03 -135.45 264.43 -137.09 251.83 -138.89 239.23 -140.76 226.63 -142.58 214.03 -144.26 201.43 -145.7 188.83 -146.82 176.22 -147.57 163.62 -147.88 151.02 -147.76 138.42 -147.21 125.82 -146.25 113.22 -144.94 100.62 -143.36 88.02 -141.59 75.42 -139.73 62.82 -137.89 50.22 -136.16 37.62 -134.65 25.02 -133.43 12.42 -132.58 -0.17 -132.15 -12.77 -132.15 -25.37 -132.59 -37.97 -133.45 -50.57 -134.67 -63.17 -136.18 -75.77 -137.91 -88.37 -139.76 -100.97 -141.62 -113.57 -143.39 -126.17 -144.96 -138.77 -146.27 -156.75 -140.06 -156.97 -117.99 -149.18 -103.05 -140.26 -88.08" fill="url(#uuunion-grad2)" filter="url(#uuunion-blur)"></path><path d="M1402.23 311.13Q1410.96 309.24 1419.7 307.67 1428.43 306.45 1437.17 305.64 1454.64 305.48 1472.11 306.6 1480.84 307.86 1489.58 309.48 1498.31 311.41 1507.05 313.58 1515.78 315.95 1524.51 318.43 1533.25 320.95 1541.98 323.45 1561.95 341.01 1582.82 358.57 1596.14 376.13 1596.5 393.7 1583.76 411.26 1563.08 428.82 1542.86 446.38 1531.28 463.94 1533.06 481.5 1547.46 499.06 1568.65 516.62 1588.04 534.19 1597.75 551.75 1593.85 569.31 1577.93 586.87 1556.43 604.43 1538.09 621.99 1530.33 639.55 1536.31 657.11 1553.6 674.68 1575.19 692.24 1592.32 709.8 1598.04 727.36 1590.04 744.92 1571.55 762.48 1550.08 780.04 1534.34 797.6 1530.7 815.17 1540.65 832.73 1560.15 850.29 1570.02 871.71 1545.39 864.96 1532.87 861.26 1520.35 858.59 1507.82 857.09 1495.3 856.86 1482.77 857.9 1470.25 860.16 1457.72 863.51 1445.2 867.76 1432.67 872.69 1420.15 878.02 1407.63 883.46 1395.1 888.71 1382.58 893.48 1370.05 897.51 1357.53 900.57 1345 902.5 1332.48 903.19 1319.95 902.61 1307.43 900.78 1294.9 897.8 1282.38 893.85 1269.86 889.13 1257.33 883.91 1244.81 878.48 1232.28 873.12 1219.76 868.15 1207.23 863.83 1194.71 860.4 1182.18 858.04 1169.66 856.9 1157.14 857.02 1144.61 858.42 1132.09 860.99 1119.56 864.62 1107.04 869.09 1094.51 874.16 1081.99 879.55 1069.46 884.97 1056.94 890.11 1044.41 894.7 1031.89 898.48 1019.37 901.23 1006.84 902.82 994.32 903.16 981.79 902.22 969.27 900.05 956.74 896.78 944.22 892.59 931.69 887.7 919.17 882.39 906.64 876.95 894.12 871.68 881.6 866.86 869.07 862.76 856.55 859.62 844.02 857.6 831.5 856.8 818.97 857.29 806.45 859.02 793.92 861.91 781.4 865.8 768.88 870.47 756.35 875.66 743.83 881.09 731.3 886.46 718.78 891.47 706.25 895.85 693.73 899.36 681.2 901.8 668.68 903.05 656.15 903.02 643.63 901.73 631.11 899.24 618.58 895.69 606.06 891.28 593.53 886.24 581.01 880.87 568.48 875.44 555.96 870.27 543.43 865.63 530.91 861.78 518.39 858.93 505.86 857.25 493.34 856.81 480.81 857.65 468.29 859.73 455.76 862.91 443.24 867.04 430.71 871.88 418.19 877.17 405.66 882.61 393.14 887.91 380.62 892.77 368.09 896.93 355.57 900.16 343.04 902.28 330.52 903.17 317.99 902.78 305.47 901.15 292.94 898.34 280.42 894.53 267.9 889.91 255.37 884.76 242.85 879.33 230.32 873.95 217.8 868.9 205.27 864.46 192.75 860.87 180.22 858.34 167.7 856.99 155.17 856.92 142.65 858.11 130.13 860.51 117.6 863.99 105.08 868.34 92.55 873.33 80.03 878.69 67.5 884.13 54.98 889.33 42.45 894.02 29.93 897.94 17.41 900.87 -0.65 897.85 -4.03 882.89 -1.47 872.74 1.15 862.59 3.49 852.44 5.22 842.29 6.3 827.07 6.99 822 18.66 815.02 30.06 806.83 41.29 797.56 52.43 787.37 63.58 776.51 74.82 765.24 86.22 753.86 97.83 742.66 109.69 731.93 121.82 721.91 134.19 712.82 146.8 704.81 159.61 697.97 172.55 692.32 185.58 687.83 198.63 684.38 211.65 681.79 224.59 679.86 237.4 678.32 250.07 676.91 262.59 675.34 274.96 673.36 287.21 670.71 299.38 667.19 311.5 662.67 323.63 657.05 335.83 650.3 348.14 642.46 360.62 633.64 373.28 623.99 386.15 613.72 399.23 603.05 412.5 592.26 425.91 581.59 439.43 571.31 452.97 561.64 466.47 552.76 479.85 544.83 493.04 537.92 505.95 532.08 518.54 527.25 530.76 523.35 542.6 520.24 554.07 517.73 565.2 515.59 576.04 513.59 586.67 511.49 597.2 509.04 607.74 506.03 618.4 502.28 629.31 497.66 640.58 492.08 652.3 485.52 664.56 478 677.39 469.61 690.82 460.47 704.82 450.77 719.35 440.7 734.31 430.5 749.58 420.38 765.03 410.57 780.49 401.26 795.79 392.64 810.77 384.82 821.09 382.91 831.39 381.55 841.68 380.75 851.96 380.48 862.22 380.72 872.46 381.4 882.68 382.47 892.88 383.84 903.05 385.41 913.19 387.1 923.31 388.79 933.39 390.38 943.44 391.79 953.46 392.9 963.44 393.65 973.38 393.96 983.28 393.78 993.14 393.08 1002.95 391.83 1012.73 390.04 1022.46 387.73 1032.14 384.93 1041.77 381.71 1051.36 378.12 1060.9 374.26 1070.38 370.22 1079.82 366.08 1089.21 361.96 1098.55 357.95 1107.84 354.15 1117.07 350.64 1126.26 347.51 1135.4 344.82 1144.49 342.62 1153.53 340.93 1162.52 339.78 1171.47 339.16 1180.36 339.05 1189.22 339.4 1198.03 340.15 1206.8 341.25 1215.53 342.6 1224.22 344.11 1232.88 345.7 1250.07 348.56 1267.18 350.76 1284.16 351.11 1301.08 350.01 1317.93 346.36 1334.76 341.25 1343.16 337.97 1351.57 334.37 1359.98 330.53 1368.4 326.55 1376.84 322.53 1385.28 318.55 1393.75 314.72 1402.23 311.13" fill="url(#uuunion-grad3)" filter="url(#uuunion-blur2)"></path></svg>