<svg xmlns="http://www.w3.org/2000/svg" version="1.1" xmlns:xlink="http://www.w3.org/1999/xlink" xmlns:svgjs="http://svgjs.dev/svgjs" viewBox="0 0 1422 800"><defs><linearGradient x1="50%" y1="0%" x2="50%" y2="100%" id="ccchaos-grad"><stop stop-color="hsl(206, 75%, 49%)" stop-opacity="1" offset="0%"></stop><stop stop-color="hsl(331, 90%, 56%)" stop-opacity="1" offset="100%"></stop></linearGradient></defs><g stroke-width="2" stroke="url(#ccchaos-grad)" fill="none" stroke-linecap="round"><path d="M733.23 127.39C743.63 126.8 753.97 126.01 764.2 125.08 774.4 123.62 784.42 122.28 794.15 121.19 803.72 120.01 812.85 119.39 821.36 119.44 829.52 119.82 836.87 121.09 843.23 123.29 849.06 126.05 853.79 129.8 857.34 134.49 860.44 139.74 862.53 145.84 863.8 152.69 865.2 159.93 866.4 167.76 867.86 176.05 870.55 184.5 874.41 193.25 879.91 202.2 887.64 211.1 897.49 220.1 909.5 229.13 923.39 237.99 938.63 246.84 954.41 255.67 969.79 264.28 983.68 272.89 994.92 281.5 1002.85 289.92 1006.58 298.38 1005.75 306.92 1001.24 315.32 993.24 323.84 982.97 332.52 972.74 341.11 963.6 349.9 957.25 358.92 955.52 367.89 958.58 377.13 966.44 386.64 978.57 396.13 993.09 405.92 1007.88 416 1021 426.09 1029.82 436.25 1033.09 446.44 1030.86 456.63 1022.98 466.84 1010.63 477.03 995.69 487.19 979.73 497.28 964.64 507.23 952.11 517.1 943.03 526.76 937.87 536.11 936.96 545.28 939.34 554.05 944.01 562.31 950.47 570.26 956.86 577.58 962.03 584.18 966.27 593.07 956.06 606.02 942.06 610.06 930.09 612.22 916.72 613.71 902.61 614.65 888.15 615.7 873.87 616.53 860.14 617.31 847.02 618.74 834.79 620.51 823.47 622.82 812.98 626.24 803.28 630.46 794.21 635.57 785.74 641.91 777.61 649.08 769.64 656.94 761.96 665.6 754.2 674.5 746.22 683.29 738.33 691.94 730.1 699.76 721.48 706.31 712.86 711.69 703.8 715.18 694.33 716.51 684.85 716.09 675.19 713.45 665.44 708.82 655.75 702.86 646.02 695.47 636.37 687.05 626.85 678.3 617.51 669.24 608.46 660.25 599.65 651.91 591.25 644.14 583.37 637.12 575.81 631.27 568.84 626.29 562.54 622.15 553.81 617.94 539.28 613.02 532.89 611.2 528.33 610.17 523.69 608.69 518.81 606.63 513.17 604.4 507.08 601.4 500.51 597.59 493.18 593.42 485.51 588.4 477.68 582.58 469.65 576.37 461.96 569.42 454.91 561.82 448.47 553.92 443.15 545.47 439.14 536.57 436.1 527.49 434.34 518.06 433.75 508.38 433.59 498.6 434 488.65 434.66 478.59 434.72 468.5 434.43 458.36 433.64 448.2 431.8 438.04 429.51 427.89 427.05 417.78 424.26 407.66 422.11 397.82 420.93 388.26 420.53 378.68 421.58 369.35 424.08 360.26 427.54 351.12 432.15 342.18 437.61 333.43 443.19 324.58 448.95 315.87 454.57 307.27 459.43 298.52 463.79 289.83 467.61 281.18 470.52 272.34 473.1 263.49 475.57 254.65 477.72 245.6 480.27 236.55 483.43 227.51 487.01 218.34 491.56 209.23 497.15 200.26 503.5 191.29 510.89 182.57 519.19 174.2 528.14 166.05 537.78 158.41 547.91 151.41 558.34 144.84 569 139.06 579.76 134.16 590.51 129.83 601.2 126.44 611.79 124.03 622.22 122.13 632.52 121.13 642.71 120.96 652.74 121.04 662.72 121.72 672.69 122.87 682.57 123.85 692.52 124.99 702.59 126.19 712.62 126.78 722.84 127.2 733.23 127.39" stroke-dasharray="2 2" transform="rotate(0, 711, 400)" opacity="0.71"></path><path d="M732.57 138.72C742.55 138.15 752.28 137.4 761.71 136.52 771.1 135.12 780.1 133.82 788.64 132.75 797.02 131.55 804.8 130.85 811.85 130.75 821.58 131.42 836.05 137.73 840.77 143.54 843.51 148.24 845.67 153.79 847.5 160.08 849.87 166.79 852.52 174.11 855.87 181.94 860.67 189.98 866.84 198.38 874.7 207.04 884.51 215.72 896.11 224.55 909.31 233.47 923.68 242.29 938.63 251.13 953.35 259.98 966.99 268.67 978.62 277.35 987.29 286.04 992.67 294.56 994.09 303.12 991.48 311.72 985.88 320.19 977.56 328.75 967.71 337.42 958.47 346.01 950.66 354.75 945.72 363.67 945.16 372.53 948.97 381.61 957.05 390.9 968.87 400.17 982.72 409.69 996.71 419.43 1009.19 429.17 1017.77 438.92 1021.34 448.65 1019.93 458.37 1013.26 468.05 1002.29 477.63 988.59 487.18 973.49 496.59 958.66 505.8 945.68 514.91 935.46 523.74 928.61 532.22 925.62 540.51 925.87 548.36 928.65 555.66 933.66 562.69 939.3 569.09 944.52 574.79 950.42 582.45 947.35 593.52 937.63 597.03 928.38 599.02 917.35 600.5 905.09 601.59 892 602.91 878.53 604.14 865.1 605.44 851.81 607.43 839.02 609.81 826.89 612.75 815.32 616.73 804.44 621.46 794.22 626.97 784.52 633.56 775.29 640.84 766.4 648.66 757.83 657.13 749.41 665.72 741 674.09 732.73 682.27 724.35 689.6 715.79 695.71 707.25 700.71 698.48 703.95 689.48 705.19 680.47 704.81 671.46 702.39 662.49 698.11 653.56 692.59 644.73 685.69 636.1 677.77 627.58 669.48 619.34 660.8 611.47 652.08 603.78 643.84 596.55 636.04 589.84 628.84 583.33 622.65 577.37 617.22 571.97 612.55 564.26 607.42 550.58 600.79 543.94 598.38 539 597.11 533.83 595.54 528.31 593.55 522.03 591.52 515.3 588.87 508.16 585.54 500.42 581.97 492.49 577.64 484.58 572.59 476.69 567.22 469.31 561.15 462.72 554.44 456.86 547.47 452.18 539.92 448.81 531.9 446.37 523.69 445.13 515.09 444.93 506.18 445.05 497.16 445.62 487.91 446.32 478.48 446.38 469.01 446.02 459.42 445.12 449.75 443.18 440.07 440.8 430.33 438.22 420.57 435.32 410.81 433.02 401.26 431.65 391.91 431.03 382.56 431.83 373.38 434.06 364.4 437.27 355.36 441.68 346.48 447 337.73 452.58 328.89 458.44 320.15 464.27 311.48 469.46 302.69 474.2 293.93 478.42 285.2 481.71 276.31 484.58 267.43 487.18 258.55 489.29 249.53 491.57 240.54 494.25 231.6 497.11 222.59 500.76 213.71 505.3 205.02 510.47 196.4 516.63 188.08 523.73 180.18 531.5 172.53 540.06 165.44 549.25 159 558.89 153.01 568.93 147.79 579.23 143.44 589.68 139.62 600.23 136.69 610.76 134.67 621.28 133.11 631.72 132.36 642.06 132.37 652.32 132.57 662.5 133.3 672.6 134.45 682.64 135.4 692.65 136.49 702.63 137.62 712.6 138.17 722.59 138.55 732.57 138.72" stroke-dasharray="3 4" transform="rotate(3.72, 711, 400)" opacity="0.55"></path><path d="M727.8 150.05C737.28 149.51 746.35 148.79 754.98 147.96 763.56 146.63 771.63 145.38 779.11 144.33 786.47 143.13 793.17 142.37 799.13 142.15 807.4 142.5 819.97 147.74 824.6 152.82 827.72 156.98 830.65 161.97 833.67 167.69 837.5 173.83 841.97 180.61 847.4 187.92 854.28 195.48 862.55 203.45 872.35 211.73 883.67 220.1 896.32 228.67 909.97 237.38 924.08 246.04 938.09 254.79 951.21 263.56 962.76 272.23 971.96 280.91 978.09 289.6 981.12 298.17 980.56 306.75 976.54 315.37 970.23 323.87 961.9 332.44 952.71 341.08 944.56 349.64 938.1 358.31 934.51 367.11 935 375.86 939.46 384.76 947.67 393.82 959.15 402.86 972.32 412.08 985.54 421.46 997.38 430.84 1005.71 440.16 1009.52 449.4 1008.86 458.62 1003.32 467.74 993.68 476.7 981.27 485.62 967.15 494.33 952.8 502.79 939.66 511.14 928.61 519.17 920.37 526.8 915.51 534.26 913.72 541.25 914.52 547.69 917.8 553.89 922.23 559.48 926.93 564.41 934.65 575.93 919.36 586.78 905.18 588.92 894.08 590.6 882.15 592.28 869.78 594.13 857.15 596.68 844.61 599.65 832.38 603.17 820.4 607.64 808.92 612.79 797.99 618.62 787.43 625.38 777.36 632.7 767.73 640.43 758.37 648.66 749.3 656.9 740.45 664.85 731.73 672.55 723.1 679.4 714.5 685.07 705.95 689.71 697.35 692.71 688.73 693.86 680.1 693.53 671.63 691.31 663.36 687.36 655.12 682.27 647.11 675.85 639.39 668.44 631.75 660.61 624.46 652.34 617.59 643.92 610.82 635.86 604.51 628.1 598.68 620.8 592.93 614.36 587.63 608.56 582.76 603.43 575.5 597.46 561.58 589.13 554.28 586.05 548.77 584.44 542.94 582.66 536.73 580.59 529.82 578.61 522.53 576.14 514.95 573.12 506.95 569.97 498.94 566.17 491.15 561.73 483.57 557.06 476.65 551.74 470.66 545.81 465.47 539.65 461.48 532.94 458.76 525.73 456.91 518.35 456.15 510.55 456.3 502.39 456.64 494.13 457.32 485.57 458.04 476.78 458.04 467.94 457.59 458.92 456.58 449.76 454.54 440.58 452.07 431.28 449.39 421.9 446.39 412.51 443.96 403.26 442.42 394.15 441.59 385.04 442.12 376.04 444.06 367.18 446.99 358.28 451.15 349.47 456.28 340.75 461.77 331.97 467.67 323.24 473.64 314.56 479.12 305.78 484.24 297.02 488.88 288.28 492.61 279.43 495.87 270.59 498.75 261.78 501 252.89 503.23 244.06 505.64 235.33 508.02 226.59 510.96 218.02 514.61 209.71 518.72 201.52 523.72 193.68 529.59 186.3 536.09 179.21 543.41 172.69 551.45 166.84 560 161.43 569.09 156.78 578.58 152.96 588.35 149.62 598.35 147.13 608.46 145.48 618.68 144.22 628.9 143.69 639.07 143.86 649.26 144.15 659.35 144.92 669.34 146.05 679.32 146.96 689.19 147.99 698.93 149.05 708.68 149.55 718.32 149.9 727.8 150.05" stroke-dasharray="6 3" transform="rotate(7.44, 711, 400)" opacity="0.53"></path><path d="M719.82 161.38C728.74 160.86 737.17 160.19 745.08 159.41 752.94 158.15 760.24 156.96 766.94 155.94 776.54 154.35 792.44 153.71 798.85 155.18 804.93 157.96 816.56 168.2 823.25 175.56 828.77 181.12 835.12 187.31 842.52 194.06 851.21 201.09 861.13 208.57 872.26 216.39 884.43 224.36 897.4 232.57 910.75 240.98 923.95 249.39 936.47 257.93 947.59 266.53 956.86 275.08 963.62 283.67 967.36 292.27 968.3 300.79 966.12 309.34 961.08 317.9 954.41 326.37 946.38 334.89 938.02 343.45 931.04 351.95 925.92 360.52 923.59 369.16 925.04 377.76 930.04 386.47 938.31 395.27 949.41 404.06 961.91 412.96 974.37 421.96 985.58 430.95 993.64 439.83 997.65 448.55 997.64 457.27 993.17 465.81 984.81 474.14 973.7 482.43 960.67 490.47 946.98 498.19 933.94 505.82 922.39 513.09 913.06 519.94 904.76 529.74 904.6 546.48 909.74 553.26 918.92 563.58 912.55 574.15 902.13 576.75 893.38 578.84 883.47 581.02 872.77 583.42 861.5 586.51 849.92 590.03 838.31 594.05 826.66 598.96 815.24 604.45 804.17 610.51 793.29 617.37 782.82 624.66 772.76 632.23 762.9 640.18 753.39 648.04 744.2 655.55 735.13 662.77 726.29 669.15 717.64 674.41 709.03 678.7 700.56 681.47 692.22 682.53 683.88 682.25 675.85 680.23 668.14 676.6 660.44 671.9 653.08 665.96 646.09 659.04 639.12 651.69 632.55 643.84 626.39 635.77 620.26 627.94 614.54 620.28 609.23 612.96 603.88 606.35 598.85 600.28 594.12 594.77 589.17 590.12 584.37 586 579.6 582.34 574.4 579.41 569.06 576.77 563.49 574.29 557.32 572.27 550.8 570.19 543.93 567.94 536.5 565.86 528.8 563.42 520.95 560.56 512.9 557.66 505.02 554.23 497.53 550.24 490.44 546.11 484.13 541.39 478.83 536.11 474.37 530.66 471.1 524.66 469.04 518.18 467.74 511.56 467.41 504.49 467.86 497.04 468.37 489.5 469.11 481.62 469.78 473.46 469.7 465.25 469.14 456.8 468.01 448.15 465.88 439.49 463.32 430.65 460.56 421.66 457.49 412.67 454.94 403.74 453.23 394.9 452.2 386.05 452.47 377.27 454.1 368.56 456.71 359.83 460.57 351.14 465.45 342.52 470.8 333.84 476.65 325.18 482.71 316.56 488.41 307.87 493.86 299.19 498.9 290.54 503.12 281.82 506.83 273.12 510.11 264.49 512.67 255.83 515.05 247.26 517.42 238.83 519.55 230.46 522.04 222.3 525.03 214.44 528.27 206.75 532.25 199.45 536.99 192.64 542.25 186.14 548.3 180.22 555.09 174.97 562.38 170.14 570.3 166.04 578.71 162.73 587.48 159.86 596.6 157.77 605.94 156.45 615.49 155.46 625.14 155.13 634.8 155.42 644.56 155.78 654.28 156.57 663.88 157.67 673.53 158.53 683.05 159.5 692.38 160.48 701.74 160.93 710.91 161.24 719.82 161.38" stroke-dasharray="5 2" transform="rotate(11.16, 711, 400)" opacity="1.00"></path><path d="M710.17 172.71C718.5 172.21 726.35 171.58 733.67 170.86 740.97 169.67 747.74 168.55 753.96 167.57 762.98 165.99 778.57 165.04 785.47 166.14 790.19 167.4 794.83 169.4 799.55 172.13 804.82 175.27 810.48 179.15 816.74 183.73 823.9 188.7 831.93 194.3 840.93 200.45 850.94 206.91 861.89 213.83 873.66 221.14 885.96 228.62 898.53 236.4 910.93 244.4 922.69 252.47 933.31 260.7 942.22 269.03 949.15 277.35 953.57 285.74 955.18 294.17 954.39 302.55 950.97 310.97 945.3 319.39 938.6 327.77 931.09 336.17 923.72 344.58 917.96 352.96 914.13 361.37 912.97 369.81 915.26 378.24 920.69 386.71 928.97 395.22 939.65 403.73 951.49 412.29 963.2 420.88 973.79 429.47 981.56 437.89 985.71 446.1 986.29 454.31 982.8 462.29 975.66 470.01 965.85 477.69 953.97 485.07 941.11 492.11 928.42 499.08 916.66 505.66 906.58 511.8 896.16 520.61 890.54 535.55 893.45 541.61 902.3 551.18 902.46 562.03 895.57 565.19 889.24 567.72 881.59 570.4 872.91 573.33 863.49 576.92 853.44 580.92 843.05 585.4 832.37 590.64 821.64 596.39 811.03 602.61 800.42 609.48 790.06 616.68 780.01 624.04 770.06 631.67 760.43 639.13 751.14 646.2 741.93 652.94 733.01 658.87 724.37 663.72 715.77 667.68 707.41 670.22 699.29 671.2 691.17 670.96 683.46 669.12 676.15 665.8 668.83 661.5 661.91 656.01 655.39 649.58 648.85 642.71 642.71 635.3 636.95 627.6 631.13 620.05 625.65 612.56 620.49 605.29 615.18 598.61 610.08 592.34 605.13 586.54 599.87 581.49 594.63 576.92 589.3 572.77 583.51 569.31 577.5 566.15 571.22 563.21 564.41 560.73 557.29 558.28 549.9 555.76 542.11 553.48 534.2 550.95 526.32 548.11 518.43 545.31 510.9 542.08 503.91 538.4 497.45 534.64 491.88 530.38 487.35 525.61 483.65 520.72 481.09 515.34 479.66 509.48 478.86 503.51 478.9 497.11 479.58 490.3 480.21 483.41 480.95 476.17 481.55 468.6 481.36 461 480.67 453.11 479.41 444.97 477.19 436.82 474.56 428.45 471.73 419.87 468.6 411.29 465.96 402.71 464.1 394.17 462.87 385.62 462.88 377.08 464.19 368.58 466.47 360.07 469.99 351.57 474.56 343.09 479.69 334.58 485.41 326.08 491.46 317.6 497.31 309.09 503.03 300.58 508.43 292.11 513.11 283.62 517.32 275.18 521.08 266.82 524.07 258.49 526.77 250.28 529.31 242.26 531.45 234.33 533.74 226.67 536.33 219.33 538.96 212.2 542.15 205.49 545.96 199.28 550.12 193.38 555 188.07 560.57 183.42 566.57 179.15 573.22 175.59 580.42 172.76 587.99 170.32 595.99 168.6 604.32 167.58 612.89 166.82 621.67 166.66 630.56 167.04 639.59 167.46 648.63 168.24 657.62 169.3 666.68 170.11 675.64 171.01 684.42 171.91 693.23 172.31 701.83 172.59 710.17 172.71" stroke-dasharray="8 1" transform="rotate(14.88, 711, 400)" opacity="0.66"></path><path d="M700.67 184.04C708.45 183.57 715.8 182.98 722.71 182.31 729.61 181.21 736.08 180.15 742.13 179.22 751.05 177.68 767.48 176.49 775.4 177.27 780.98 178.23 786.69 179.87 792.69 182.18 799.26 184.85 806.35 188.21 814.08 192.23 822.59 196.61 831.86 201.61 841.91 207.16 852.62 213.02 863.93 219.35 875.63 226.09 887.38 233.02 898.93 240.29 909.85 247.82 919.79 255.45 928.29 263.27 934.91 271.24 939.6 279.23 941.9 287.33 941.7 295.48 939.55 303.63 935.3 311.82 929.36 320.02 922.91 328.21 916.14 336.41 909.85 344.61 905.32 352.79 902.73 360.99 902.64 369.18 905.66 377.36 911.42 385.56 919.63 393.75 929.87 401.94 941.04 410.14 952.03 418.31 962.01 426.48 969.47 434.44 973.72 442.15 974.81 449.84 972.21 457.28 966.24 464.42 957.69 471.53 947.02 478.32 935.11 484.74 922.99 491.11 911.31 497.08 900.79 502.64 892.08 508.1 885.35 513.12 880.7 517.68 879.93 529.47 889.03 543.13 890.48 546.72 889.44 550.53 878.71 558.86 869.44 563.87 862.09 567.91 853.91 572.33 845.14 577.17 835.93 582.67 826.41 588.6 816.76 594.88 806.97 601.71 797.22 608.74 787.63 615.84 778.04 623.12 768.66 630.17 759.56 636.78 750.49 643.06 741.7 648.54 733.2 653 724.72 656.64 716.51 658.97 708.59 659.87 700.66 659.67 693.17 658 686.11 654.97 679.03 651.04 672.34 646 666.05 640.05 659.69 633.66 653.69 626.71 648.01 619.41 642.21 612.17 636.67 604.91 631.33 597.77 625.78 591.09 620.33 584.71 614.91 578.71 609.16 573.35 603.31 568.4 597.32 563.84 590.89 559.89 584.23 556.25 577.32 552.84 569.98 549.91 562.44 547.06 554.73 544.2 546.83 541.63 538.95 538.92 531.28 535.98 523.79 533.15 516.79 530 510.48 526.48 502.4 520.97 492.43 507.69 490.63 499.89 490.28 494.47 490.63 488.63 491.46 482.38 492.14 476.08 492.83 469.41 493.31 462.4 493 455.36 492.16 448.01 490.77 440.37 488.48 432.72 485.78 424.81 482.9 416.65 479.72 408.5 477.01 400.3 475.02 392.09 473.61 383.87 473.36 375.64 474.35 367.4 476.27 359.16 479.42 350.9 483.64 342.65 488.47 334.39 493.99 326.13 499.94 317.88 505.84 309.63 511.73 301.39 517.43 293.22 522.54 285.04 527.23 276.95 531.49 268.97 535.01 261.05 538.16 253.3 541.04 245.76 543.41 238.36 545.76 231.25 548.22 224.49 550.54 217.96 553.23 211.87 556.36 206.28 559.67 201 563.57 196.29 568.07 192.22 572.89 188.5 578.33 185.44 584.31 183.06 590.62 181.02 597.42 179.62 604.59 178.86 612.03 178.31 619.75 178.28 627.66 178.74 635.73 179.18 643.91 179.95 652.11 180.95 660.39 181.7 668.62 182.52 676.74 183.35 684.9 183.7 692.89 183.93 700.67 184.04" stroke-dasharray="8 9" transform="rotate(18.6, 711, 400)" opacity="0.23"></path><path d="M693.14 195.36C700.41 194.92 707.38 194.38 714.04 193.77 720.7 192.74 727.08 191.76 733.21 190.89 739.39 189.81 745.38 189 751.26 188.51 757.31 188.04 763.37 188.04 769.54 188.55 776.05 189.26 782.85 190.57 790.03 192.5 797.72 194.73 805.95 197.6 814.76 201.09 824.12 204.9 834.06 209.31 844.51 214.25 855.27 219.49 866.25 225.21 877.21 231.34 887.84 237.69 897.89 244.39 906.97 251.37 914.88 258.49 921.2 265.83 925.61 273.34 928.26 280.92 928.77 288.62 927.14 296.41 924.03 304.22 919.32 312.09 913.44 319.99 907.51 327.89 901.62 335.81 896.48 343.73 893.15 351.64 891.71 359.55 892.58 367.44 896.21 375.33 902.22 383.2 910.28 391.04 920.07 398.88 930.58 406.68 940.86 414.43 950.25 422.17 957.39 429.66 961.69 436.89 963.21 444.1 961.42 451.02 956.53 457.64 949.21 464.22 939.76 470.47 928.91 476.37 917.53 482.21 906.18 487.68 895.53 492.75 886.19 497.77 878.42 502.38 872.38 506.58 866.73 517.72 871.65 531.45 873.63 535.43 874.16 539.75 868.43 549.37 862.09 555.03 856.78 559.46 850.54 564.22 843.56 569.33 836.09 575.01 828.11 581.02 819.78 587.3 811.22 594 802.49 600.82 793.73 607.63 784.9 614.53 776.13 621.15 767.51 627.31 758.89 633.12 750.45 638.16 742.24 642.25 734.05 645.58 726.07 647.72 718.34 648.54 710.62 648.38 703.3 646.87 696.36 644.12 689.4 640.55 682.79 635.93 676.5 630.45 670.14 624.53 664.06 618.04 658.21 611.17 652.22 604.29 646.38 597.31 640.65 590.36 634.69 583.75 628.73 577.36 622.73 571.25 616.41 565.67 609.95 560.43 603.32 555.52 596.34 551.17 589.15 547.09 581.79 543.25 574.15 539.87 566.42 536.61 558.67 533.4 550.9 530.49 543.33 527.52 536.1 524.41 529.21 521.45 522.93 518.26 517.42 514.78 510.61 509.46 502.94 496.99 501.96 489.76 502.26 482.08 504.44 464.73 505.07 455.14 504.6 448.61 503.62 441.75 502.1 434.59 499.73 427.42 496.99 419.97 494.07 412.25 490.87 404.53 488.1 396.73 486 388.88 484.42 381.04 483.92 373.15 484.59 365.23 486.15 357.32 488.9 349.38 492.72 341.43 497.2 333.49 502.43 325.55 508.19 317.63 514.03 309.72 520 301.85 525.89 294.06 531.34 286.3 536.47 278.64 541.22 271.13 545.28 263.71 548.96 256.48 552.32 249.5 555.1 242.68 557.72 236.16 560.31 230.03 563.85 221.39 572.21 206.96 577.49 201.38 583.55 196.88 598.61 191.38 607.47 190.28 613.74 189.9 620.35 189.98 627.22 190.48 634.24 190.94 641.45 191.67 648.77 192.61 656.17 193.29 663.61 194.03 671.03 194.78 678.48 195.08 685.87 195.28 693.14 195.36" stroke-dasharray="9 0" transform="rotate(22.32, 711, 400)" opacity="0.37"></path><path d="M689.01 206.69C695.84 206.28 702.53 205.78 709.06 205.22 715.61 204.28 722.03 203.38 728.37 202.57 734.79 201.55 741.19 200.77 747.64 200.26 754.26 199.75 761.05 199.64 768.06 199.98 775.38 200.47 783.04 201.5 791.1 203.08 799.55 204.92 808.44 207.34 817.78 210.32 827.43 213.6 837.41 217.43 847.6 221.78 857.78 226.4 867.84 231.5 877.53 237.01 886.62 242.74 894.86 248.83 901.92 255.22 907.74 261.77 911.97 268.56 914.4 275.55 915.31 282.63 914.39 289.86 911.73 297.2 908.06 304.59 903.24 312.05 897.71 319.56 892.48 327.09 887.59 334.65 883.62 342.21 881.45 349.77 881.07 357.33 882.77 364.87 886.9 372.4 893.06 379.91 900.94 387.36 910.25 394.81 920.1 402.2 929.69 409.51 938.49 416.82 945.3 423.86 949.6 430.62 951.49 437.37 950.42 443.82 946.53 449.96 940.4 456.08 932.16 461.87 922.42 467.31 911.94 472.73 901.15 477.79 890.65 482.49 881.02 487.17 872.53 491.48 865.42 495.45 855.2 506.29 854.71 520.48 856.35 524.91 857.49 529.77 855.08 540.58 851.1 546.81 847.56 551.54 843.1 556.55 837.85 561.85 832.13 567.62 825.79 573.64 818.95 579.84 811.83 586.36 804.37 592.91 796.71 599.38 788.92 605.88 781.04 612.06 773.15 617.76 765.22 623.12 757.35 627.75 749.59 631.48 741.82 634.52 734.19 636.46 726.7 637.21 719.22 637.08 712.05 635.73 705.18 633.24 698.28 630 691.65 625.8 685.25 620.78 678.77 615.33 672.48 609.31 666.32 602.88 660.03 596.39 653.8 589.73 647.59 583.03 641.17 576.57 634.7 570.24 628.14 564.1 621.31 558.4 614.35 552.95 607.25 547.79 599.9 543.1 592.42 538.66 584.86 534.45 577.19 530.66 569.55 527 562.05 523.43 554.68 520.18 547.65 516.9 541.09 513.56 532.26 508.74 519.42 498.26 515.78 492.4 513.92 486.25 514.28 472.25 515.58 464.37 516.18 458.97 516.64 453.23 516.8 447.17 516.17 441.08 515.03 434.68 513.4 427.97 510.96 421.26 508.17 414.25 505.24 406.97 502.03 399.68 499.22 392.3 497.03 384.86 495.3 377.42 494.57 369.91 494.93 362.38 496.11 354.85 498.45 347.28 501.83 339.72 505.9 332.17 510.77 324.62 516.25 317.12 521.93 309.64 527.85 302.21 533.83 294.89 539.51 287.62 544.98 280.47 550.16 273.5 554.75 266.64 558.99 259.99 562.88 253.62 566.18 247.41 569.25 241.53 572.18 236.03 575.99 228.34 583.9 215.71 588.47 210.93 593.49 207.12 605.89 202.63 613.26 201.85 618.47 201.6 624.05 201.75 629.93 202.27 635.94 202.72 642.2 203.41 648.66 204.28 655.18 204.88 661.84 205.54 668.58 206.21 675.35 206.46 682.17 206.62 689.01 206.69" stroke-dasharray="4 2" transform="rotate(26.040000000000003, 711, 400)" opacity="0.10"></path><path d="M689.07 218.02C695.54 217.63 702.02 217.18 708.49 216.68 714.98 215.82 721.5 215 728.07 214.26 734.73 213.31 741.5 212.57 748.43 212.07 755.52 211.52 762.85 211.34 770.44 211.55 778.27 211.86 786.42 212.65 794.91 213.92 803.62 215.41 812.65 217.41 821.91 219.94 831.25 222.72 840.68 226.01 850.03 229.79 859.11 233.81 867.79 238.29 875.85 243.18 883.15 248.27 889.44 253.73 894.48 259.51 898.34 265.44 900.7 271.64 901.45 278.05 901 284.57 899.05 291.26 895.78 298.09 891.9 304.97 887.28 311.96 882.34 319.01 877.96 326.09 874.14 333.21 871.31 340.35 870.23 347.5 870.8 354.65 873.21 361.77 877.72 368.91 883.95 376 891.59 383.04 900.39 390.07 909.6 397.04 918.52 403.91 926.74 410.79 933.21 417.39 937.48 423.71 939.67 430.03 939.23 436.05 936.26 441.78 931.23 447.49 924.18 452.89 915.6 457.98 906.11 463.04 896.06 467.8 885.97 472.23 876.36 476.66 867.49 480.79 859.65 484.62 850.49 490.29 840.41 500.58 838.74 505.38 839.7 515.49 839.58 532.48 837.2 539.16 834.97 544.11 831.94 549.29 828.16 554.69 824 560.46 819.18 566.41 813.78 572.46 808.11 578.73 802 584.98 795.54 591.08 788.93 597.16 782.07 602.9 775.07 608.15 768 613.07 760.84 617.29 753.65 620.67 746.45 623.44 739.25 625.2 732.07 625.88 724.89 625.78 717.9 624.58 711.09 622.33 704.27 619.42 697.59 615.61 691.05 611.03 684.44 606.04 677.92 600.49 671.45 594.52 664.86 588.44 658.27 582.14 651.64 575.74 644.85 569.49 637.98 563.3 631.02 557.22 623.88 551.48 616.64 545.94 609.31 540.6 601.86 535.67 594.38 530.95 586.93 526.43 579.52 522.29 572.27 518.28 565.28 514.38 558.55 510.78 552.27 507.2 546.56 503.6 539.08 498.45 528.92 487.67 526.39 481.85 525.36 475.85 526.48 462.46 527.75 455.02 528.38 447.26 527.04 430.18 524.64 420.9 522.15 414.61 519.35 408.03 516.41 401.19 513.22 394.34 510.39 387.39 508.12 380.37 506.26 373.36 505.31 366.29 505.37 359.18 506.19 352.08 508.1 344.95 511.03 337.83 514.64 330.73 519.09 323.66 524.19 316.63 529.6 309.65 535.36 302.74 541.29 295.95 547.08 289.23 552.77 282.66 558.28 276.28 563.32 270.02 568.06 263.99 572.49 258.25 578.17 250.06 587.77 235.82 592.08 229.94 600.48 221.29 615.52 214.06 621.78 213.52 628.52 213.48 643.82 214.84 652.24 215.94 657.98 216.47 663.94 217.05 670.1 217.64 676.26 217.83 682.59 217.97 689.07 218.02" stroke-dasharray="5 10" transform="rotate(29.76, 711, 400)" opacity="0.89"></path><path d="M693.3 229.35C699.48 228.99 705.78 228.58 712.19 228.13 718.62 227.35 725.19 226.62 731.91 225.96 738.7 225.09 745.68 224.39 752.87 223.92 760.18 223.37 767.74 223.13 775.54 223.24 783.48 223.41 791.67 224 800.07 225.02 808.53 226.19 817.14 227.84 825.78 229.95 834.3 232.27 842.67 235.06 850.73 238.3 858.36 241.75 865.39 245.64 871.63 249.92 879.28 256.81 887.18 272.46 887.05 281.05 885.62 286.96 883.06 293.07 879.55 299.32 875.79 305.65 871.64 312.1 867.47 318.63 864.03 325.2 861.28 331.84 859.57 338.49 859.47 345.17 860.87 351.87 863.87 358.54 868.66 365.22 874.87 371.87 882.22 378.47 890.52 385.07 899.08 391.6 907.35 398.04 915 404.47 921.12 410.66 925.32 416.58 927.74 422.49 927.85 428.13 925.7 433.5 921.7 438.86 915.8 443.94 908.38 448.74 899.97 453.54 890.81 458.06 881.34 462.32 872.03 466.59 863.1 470.62 854.86 474.4 847.59 478.25 841.32 481.89 836.09 485.37 830.53 490.69 825.03 501.17 824.1 506.53 824.02 512.35 823.05 525.04 821.44 532.05 820.01 537.12 817.94 542.38 815.22 547.79 812.25 553.49 808.65 559.29 804.49 565.13 800.1 571.11 795.21 577.01 789.89 582.73 784.43 588.37 778.63 593.66 772.54 598.47 766.38 602.95 760.01 606.78 753.47 609.84 746.91 612.34 740.22 613.94 733.42 614.55 726.62 614.48 719.87 613.41 713.19 611.39 706.5 608.79 699.84 605.36 693.22 601.21 686.56 596.67 679.9 591.59 673.22 586.07 666.46 580.42 659.65 574.52 652.78 568.46 645.81 562.49 638.77 556.5 631.65 550.56 624.46 544.88 617.23 539.31 609.98 533.91 602.74 528.83 595.57 523.91 588.54 519.16 581.67 514.74 575.06 510.45 568.82 506.26 562.93 502.35 557.55 498.48 552.78 494.63 546.74 489.13 539.14 477.92 537.6 472.05 537.23 466.08 538.81 453.08 539.95 445.97 540.32 438.6 538.42 422.51 535.85 413.8 533.31 407.9 530.5 401.73 527.58 395.32 524.42 388.91 521.59 382.4 519.27 375.83 517.29 369.27 516.15 362.65 515.93 356 516.4 349.38 517.88 342.74 520.34 336.11 523.46 329.52 527.43 322.96 532.09 316.47 537.13 310.03 542.6 303.69 548.36 297.48 554.1 291.35 559.88 285.39 565.57 279.64 570.94 274.01 576.09 268.62 580.99 263.52 587.51 256.28 598.71 243.87 603.63 238.83 612.52 231.53 626.82 225.65 632.41 225.31 638.32 225.35 651.79 226.63 659.31 227.61 667.14 228.3 684.16 229.26 693.3 229.35" stroke-dasharray="6 8" transform="rotate(33.48, 711, 400)" opacity="0.50"></path><path d="M700.91 240.68C706.84 240.34 712.95 239.97 719.24 239.59 725.55 238.89 732.05 238.24 738.74 237.66 752.26 235.92 766.67 234.96 781.81 235.04 797.07 235.24 812.74 236.98 828.08 240.33 842.42 244.34 855.02 250.05 864.62 257.29 871.28 265.2 873.69 274.44 871.56 284.69 867.19 295.38 860.39 306.83 853.22 318.72 849.38 330.81 849.44 343.16 854.73 355.52 859.7 361.72 865.82 367.91 872.84 374.05 880.61 380.19 888.55 386.29 896.18 392.3 903.28 398.31 909.03 404.09 913.13 409.64 915.72 415.18 916.3 420.49 914.88 425.55 907.22 435.66 893.54 444.84 876.57 453.1 859.21 461.49 843.22 469.17 830.08 476.27 820.79 483.86 814.63 491.28 810.68 498.73 809.07 507.16 807.57 516.03 805.15 525.41 802.75 535.9 798.38 546.82 791.95 557.81 784.96 569.15 776.08 579.71 765.67 588.71 760.38 592.78 754.77 596.23 748.89 598.98 743 601.24 736.86 602.67 730.5 603.22 724.14 603.18 717.72 602.23 711.26 600.43 704.8 598.11 698.29 595.04 691.73 591.3 678.56 582.8 665.11 572.49 651.43 561.16 637.65 549.96 623.71 538.64 609.96 527.64 596.62 517.64 584.11 508.13 573.13 499.08 563.63 491 556.47 483.04 552.08 475 549.37 467.5 548.98 459.52 550.33 450.92 551.22 442.48 551.95 433.19 551.67 423.03 550.52 417.95 548.95 412.63 547 407.09 544.44 401.55 541.64 395.78 538.75 389.79 535.63 383.8 532.82 377.73 530.47 371.62 528.41 365.52 527.1 359.38 526.62 353.23 527.56 340.99 532.21 328.79 540.02 316.91 549.51 305.24 560.55 294.08 572.11 283.73 582.91 273.84 593.06 265 602.35 257.53 610.05 250.73 617.2 245.44 624.16 241.83 630.2 238.79 636.76 237.27 644.15 237.18 651.28 237.07 659.55 237.85 669.01 239.26 676.23 239.84 692.17 240.62 700.91 240.68" stroke-dasharray="8 8" transform="rotate(37.2, 711, 400)" opacity="0.39"></path><path d="M710.44 252.01C721.81 251.06 734.01 250.13 746.89 249.35 759.86 247.8 773.51 246.92 787.52 246.94 801.34 246.96 815.01 248.32 827.74 251.08 839.21 254.33 848.55 259.13 854.82 265.32 858.6 272.08 858.75 280.11 855.39 289.14 850.9 298.58 845.08 308.8 839.7 319.53 837.79 330.47 839.54 341.74 845.77 353.09 856.94 364.51 870.87 375.92 885.01 387.11 897.31 398.3 903.93 408.71 903.79 418.3 897.99 427.9 886.53 436.75 871.53 444.87 855.39 453.15 839.57 460.92 825.58 468.3 814.45 476.15 806 483.96 799.76 491.85 795.94 500.59 792.87 509.7 789.64 519.17 786.98 529.51 783.05 540.06 777.55 550.48 771.81 561.04 764.37 570.73 755.35 578.88 746.15 585.87 735.6 590.4 723.86 591.89 712.12 591.32 699.84 587.63 687.21 581.32 674.6 573.68 661.62 564.29 648.48 553.81 635.48 543.28 622.52 532.45 610.05 521.72 598.26 511.74 587.57 502.08 578.58 492.79 571.05 484.32 565.74 475.99 562.89 467.7 561.27 459.9 561.48 451.8 562.93 443.26 563.6 434.92 563.89 425.92 563.14 416.24 559.87 406.58 555.26 396.14 549.92 384.99 543.77 373.83 539.32 362.5 537.45 351.21 537.69 339.98 541.36 328.89 548.06 318.19 556.55 307.7 566.84 297.77 578.02 288.68 588.93 279.99 599.59 272.35 609.63 266 618.4 260.19 626.58 255.76 634.39 252.83 641.23 250.3 648.26 249.1 655.8 249.13 662.92 249.03 670.94 249.7 680 250.91 688.94 251.25 699.06 251.65 710.44 252.01" stroke-dasharray="5 4" transform="rotate(40.92, 711, 400)" opacity="0.99"></path><path d="M720.07 263.34C730.93 262.48 742.46 261.68 754.46 261.05 766.46 259.68 778.8 258.91 791.07 258.91 802.96 258.81 814.19 259.87 824.08 262.15 832.67 264.78 839.01 268.76 842.49 274.01 844.1 279.72 842.81 286.61 839.01 294.48 834.99 302.7 830.49 311.72 826.98 321.3 826.87 331.06 830.05 341.23 836.97 351.57 847.89 361.97 860.89 372.46 873.84 382.84 885.22 393.22 891.73 403 892.45 412.11 888.32 421.25 878.98 429.83 866.05 437.85 851.49 446.06 836.41 453.92 822.25 461.53 810 469.58 799.81 477.66 791.59 485.85 785.58 494.73 780.66 503.89 776.13 513.28 772.5 523.29 768.25 533.35 762.96 543.1 757.72 552.84 751.11 561.66 743.09 568.97 734.97 575.23 725.5 579.25 714.78 580.56 704.05 580.1 692.66 576.86 680.87 571.25 669.15 564.45 657.12 555.96 645.07 546.37 633.31 536.6 621.83 526.37 611.08 516.07 601.12 506.29 592.43 496.67 585.49 487.33 579.81 478.64 576.13 470.08 574.54 461.61 573.71 453.59 574.25 445.39 575.59 436.92 575.92 428.64 575.73 419.9 574.5 410.64 571 401.43 566.34 391.62 561.09 381.26 555.11 370.9 550.63 360.5 548.42 350.22 548.02 340.01 550.74 330.04 556.3 320.51 563.66 311.17 572.98 302.44 583.46 294.55 594.12 287.01 604.9 280.46 615.36 275.11 624.93 270.18 634.01 266.49 642.66 264.12 650.43 262.01 658.18 261.04 666.14 261.12 673.64 261 681.76 261.53 690.67 262.55 699.44 262.75 709.21 263.04 720.07 263.34" stroke-dasharray="3 3" transform="rotate(44.64, 711, 400)" opacity="0.63"></path><path d="M727.98 274.67C738.25 273.9 748.88 273.22 759.67 272.73 770.39 271.56 781.05 270.92 791.25 270.94 800.97 270.8 809.68 271.64 816.83 273.53 824.79 277.29 827.37 291.06 822.84 300.78 819.73 307.85 816.78 315.72 815.11 324.18 816.61 332.8 820.94 341.88 828.31 351.23 838.85 360.63 850.88 370.2 862.67 379.8 873.13 389.4 879.46 398.56 880.88 407.24 878.21 415.95 870.86 424.26 860.03 432.2 847.29 440.3 833.43 448.21 819.72 455.97 807.06 464.11 795.8 472.32 786.12 480.63 778.24 489.48 771.53 498.52 765.53 507.64 760.55 517.19 755.45 526.64 749.83 535.65 744.47 544.54 738.14 552.47 730.73 558.98 723.29 564.54 714.7 568.08 704.97 569.23 695.24 568.87 684.92 566.04 674.26 561.1 663.72 555.1 653.01 547.51 642.46 538.83 632.27 529.87 622.57 520.35 613.78 510.61 605.76 501.2 599.05 491.81 594 482.59 589.95 473.86 587.59 465.25 586.91 456.73 586.58 448.59 587.18 440.36 588.23 431.99 588.13 423.8 587.42 415.3 585.75 406.46 582.05 397.67 577.39 388.46 572.26 378.87 566.47 369.29 562.02 359.78 559.55 350.52 558.58 341.3 560.39 332.4 564.82 324 570.97 315.77 579.13 308.16 588.65 301.39 598.68 294.88 609.18 289.32 619.67 284.85 629.65 280.68 639.32 277.6 648.63 275.67 657.23 273.89 665.69 273.07 674.15 273.15 682.19 272.97 690.58 273.35 699.47 274.17 708.22 274.24 717.7 274.42 727.98 274.67" stroke-dasharray="9 4" transform="rotate(48.36, 711, 400)" opacity="0.83"></path><path d="M732.65 286C742.23 285.31 751.81 284.76 761.19 284.4 770.46 283.43 779.32 282.93 787.39 282.99 804.74 285.71 811.06 299.75 807.31 308.03 805.42 314.07 804.08 320.87 804.12 328.28 806.97 335.82 812.18 343.86 819.76 352.24 829.79 360.67 840.84 369.36 851.5 378.2 861.05 387.05 867.12 395.61 869.09 403.86 867.67 412.14 862.14 420.18 853.34 427.98 842.57 435.93 830.28 443.79 817.55 451.58 805.19 459.68 793.57 467.86 783.06 476.09 773.85 484.73 765.69 493.47 758.35 502.17 751.97 511.13 745.82 519.87 739.57 528.09 733.68 536.1 727.25 543.18 720.13 548.91 713.04 553.8 705.1 556.91 696.31 557.9 687.52 557.63 678.34 555.19 669.01 550.87 659.8 545.63 650.62 538.92 641.79 531.14 633.33 523.05 625.51 514.31 618.67 505.26 612.5 496.37 607.58 487.38 604.14 478.46 601.36 469.89 599.97 461.38 599.84 452.96 599.7 444.85 600.14 436.69 600.76 428.5 600.17 420.46 598.95 412.23 596.87 403.83 593.03 395.46 588.4 386.84 583.43 378 577.88 369.16 573.5 360.52 570.83 352.21 569.38 343.94 570.36 336.06 573.7 328.73 578.61 321.51 585.49 314.94 593.84 309.16 602.92 303.59 612.73 298.88 622.82 295.14 632.76 291.61 642.61 289.03 652.21 287.43 661.35 285.88 670.31 285.15 679.16 285.18 687.67 284.92 696.31 285.15 705.16 285.77 713.91 285.72 723.06 285.81 732.65 286" stroke-dasharray="10 7" transform="rotate(52.080000000000005, 711, 400)" opacity="0.93"></path><path d="M733.19 297.33C741.99 296.72 750.43 296.28 758.37 296.05 769.77 295.1 787.58 295.28 792.96 296.97 796.07 299.52 795.12 309.18 792.78 316.22 792.24 321.33 792.45 327.17 794 333.62 797.91 340.16 803.72 347.23 811.3 354.71 820.71 362.21 830.76 370.06 840.33 378.16 848.98 386.27 854.74 394.25 857.09 402.04 856.71 409.87 852.79 417.59 845.92 425.17 837.16 432.89 826.66 440.59 815.32 448.25 803.84 456.16 792.54 464.13 781.87 472.12 772.01 480.38 762.95 488.65 754.64 496.79 747.11 505.06 740 513.02 733.08 520.4 726.53 527.54 719.82 533.77 712.79 538.77 705.83 543.03 698.39 545.72 690.45 546.57 682.5 546.37 674.46 544.29 666.5 540.56 658.65 536.03 651.04 530.17 643.94 523.29 637.15 516.08 631.09 508.2 626.02 499.91 621.42 491.68 617.96 483.25 615.73 474.79 613.86 466.56 613.04 458.34 613.11 450.18 612.9 442.25 613 434.3 613.08 426.38 611.98 418.58 610.28 410.7 607.84 402.75 603.91 394.84 599.37 386.81 594.6 378.7 589.32 370.58 585.07 362.78 582.27 355.37 580.43 347.99 580.68 341.06 583 334.68 586.69 328.39 592.25 322.74 599.28 317.83 607.15 313.05 615.94 309.06 625.23 305.92 634.66 302.9 644.21 300.71 653.68 299.34 662.93 297.95 672.04 297.25 680.97 297.2 689.7 296.84 698.4 296.92 707.07 297.35 715.67 297.18 724.39 297.18 733.19 297.33" stroke-dasharray="0 8" transform="rotate(55.8, 711, 400)" opacity="0.10"></path><path d="M729.51 308.66C737.44 308.12 744.76 307.79 751.38 307.68 773.86 309.15 780.13 319.27 779.55 325.25 780.35 329.57 781.95 334.57 784.72 340.16 789.4 345.81 795.53 351.99 802.91 358.62 811.61 365.26 820.66 372.31 829.18 379.7 836.94 387.08 842.31 394.46 844.91 401.76 845.35 409.1 842.82 416.42 837.71 423.68 830.88 431.05 822.29 438.45 812.61 445.83 802.46 453.39 792.07 460.99 781.87 468.55 772.06 476.28 762.73 483.95 754 491.41 745.8 498.9 738.05 506.02 730.65 512.55 723.57 518.82 716.59 524.24 709.61 528.54 702.73 532.21 695.69 534.52 688.5 535.25 681.31 535.11 674.32 533.35 667.64 530.16 661.03 526.31 654.87 521.25 649.31 515.26 643.97 508.94 639.39 501.94 635.73 494.5 632.35 487.02 629.92 479.28 628.47 471.43 627.1 463.72 626.49 455.94 626.46 448.2 625.98 440.62 625.61 433.03 625.11 425.49 623.51 418.05 621.39 410.59 618.67 403.15 614.71 395.75 610.3 388.31 605.77 380.92 600.8 373.52 596.72 366.5 593.87 359.93 591.56 350.33 597.45 333.87 605.23 327.25 611.73 323.15 619.24 319.74 627.41 317.08 635.9 314.47 644.71 312.55 653.58 311.34 662.45 310.04 671.27 309.34 679.92 309.17 688.49 308.72 696.94 308.64 705.21 308.89 713.45 308.63 721.58 308.55 729.51 308.66" stroke-dasharray="8 2" transform="rotate(59.52, 711, 400)" opacity="0.82"></path><path d="M722.3 319.99C732.46 319.41 748.84 318.85 754.77 319.14 762.12 321.21 766.57 329.88 767.82 335 769.81 338.66 772.54 342.94 776.21 347.76 781.36 352.63 787.54 358.01 794.55 363.86 802.47 369.71 810.51 376 818 382.67 824.9 389.35 829.85 396.1 832.56 402.86 833.62 409.64 832.25 416.48 828.68 423.32 823.65 430.22 816.94 437.18 809.06 444.12 800.54 451.18 791.48 458.24 782.3 465.23 773.15 472.3 764.2 479.25 755.63 485.94 747.35 492.59 739.43 498.85 731.91 504.53 724.62 509.94 717.56 514.58 710.74 518.23 703.99 521.36 697.34 523.31 690.84 523.92 684.33 523.83 678.26 522.37 672.67 519.69 667.12 516.45 662.14 512.16 657.81 507.03 653.6 501.58 650.11 495.48 647.43 488.93 644.84 482.29 643.02 475.33 641.92 468.22 640.7 461.15 639.99 453.98 639.64 446.82 638.74 439.74 637.84 432.65 636.77 425.62 634.73 418.65 632.25 411.71 629.33 404.84 625.42 398 621.2 391.19 616.94 384.51 612.32 377.81 608.46 371.54 605.63 365.74 602.89 357.28 606.12 342.99 611.92 337.31 616.99 333.76 623.08 330.82 629.9 328.52 637.14 326.21 644.83 324.49 652.73 323.36 660.76 322.12 668.84 321.37 676.82 321.09 684.82 320.53 692.67 320.31 700.28 320.41 707.9 320.06 715.28 319.92 722.3 319.99" stroke-dasharray="5 5" transform="rotate(63.24, 711, 400)" opacity="0.49"></path><path d="M712.94 331.32C725.14 330.12 734.43 330.03 740.65 331.1 746.81 331.32 750.37 333.46 752.28 337.57 756.15 341.61 761.08 347.91 768.41 356.25 779.98 364.63 793.74 374.95 806.83 386.89 818.11 398.82 822.17 411.31 818.83 423.83 810.83 436.53 797.68 449.48 782.34 461.99 766.33 474.61 750.45 486.44 735.91 496.3 721.85 505.22 708.76 511.06 697.01 512.59 685.27 511.97 675.78 506.9 668.81 498.57 661.91 489.14 657.55 477.53 655.52 464.98 652.57 452.41 650.38 439.33 647.98 426.48 642.39 413.78 635.47 401.17 628.11 389.2 619.57 377.23 614.52 366.95 613.92 358.66 616.03 350.39 622.96 344.13 633.25 340.09 645.25 335.87 658.98 333.51 672.83 332.92 687.01 331.36 700.73 330.83 712.94 331.32" stroke-dasharray="8 3" transform="rotate(66.96, 711, 400)" opacity="0.89"></path><path d="M703.2 342.65C713.64 341.67 721.7 341.79 727.44 342.98 733.38 343.43 737.71 345.49 741.27 349.2 746.62 352.72 753.07 358.17 761.22 365.37 772.24 372.56 784.46 381.52 795.66 392.04 805.5 402.56 809.74 413.69 808.17 424.91 803.07 436.23 793.4 447.71 781.26 458.67 768.07 469.59 754.28 479.65 741.24 487.86 728.36 495.27 716.36 500.06 705.86 501.26 695.35 500.84 687.16 496.74 681.26 489.88 675.21 482.1 671.15 472.32 668.73 461.55 665.2 450.64 662.06 439.13 658.67 427.75 652.8 416.44 646.06 405.22 639.28 394.67 631.56 384.11 626.67 375.15 625.33 367.98 625.86 360.77 630.39 355.29 637.94 351.67 646.98 347.81 657.89 345.48 669.3 344.64 681.13 342.99 692.77 342.31 703.2 342.65" stroke-dasharray="4 2" transform="rotate(70.68, 711, 400)" opacity="0.87"></path><path d="M694.95 353.98C703.72 353.21 710.9 353.49 716.58 354.75 722.55 355.41 727.73 357.42 732.66 360.77 739 363.91 746.25 368.63 754.51 374.83 764.57 380.98 775.11 388.68 784.49 397.76 792.89 406.85 797.04 416.51 796.77 426.25 794 436.02 787.44 445.85 778.47 455.12 768.41 464.26 757.3 472.55 746.36 479.19 735.35 485.18 724.89 489.01 715.68 489.93 706.46 489.67 699.22 486.44 693.85 480.94 688.23 474.72 684.05 466.73 680.96 457.78 676.84 448.64 672.89 438.86 668.81 429.09 662.91 419.34 656.56 409.64 650.45 400.52 643.62 391.4 639.08 383.67 637.27 377.48 636.67 371.22 639.22 366.41 644.33 363.11 650.58 359.56 658.65 357.26 667.52 356.23 676.77 354.55 686.19 353.76 694.95 353.98" stroke-dasharray="3 6" transform="rotate(74.4, 711, 400)" opacity="0.40"></path><path d="M689.76 365.31C696.97 364.72 703.4 365.12 709.07 366.39 715.01 367.21 720.73 369.15 726.44 372.16 733.12 374.98 740.43 379.06 748.18 384.32 756.93 389.54 765.7 396.01 773.32 403.64 780.28 411.27 784.09 419.37 784.68 427.49 783.65 435.6 779.64 443.67 773.54 451.18 766.53 458.54 758.28 465.11 749.73 470.28 741.03 474.97 732.44 477.92 724.6 478.6 716.76 478.47 710.33 476.01 705.23 471.75 699.88 466.96 695.46 460.69 691.74 453.54 687.21 446.2 682.77 438.23 678.35 430.16 672.72 422.09 666.96 413.99 661.62 406.33 653.74 395.4 648.97 379.39 652.65 374.28 656.52 371.05 662.04 368.84 668.52 367.67 675.28 366.02 682.55 365.19 689.76 365.31" stroke-dasharray="4 9" transform="rotate(78.11999999999999, 711, 400)" opacity="0.32"></path><path d="M688.61 376.63C700.11 375.36 711.46 377.78 722.41 383.23 735.49 388.07 750.2 396.96 762.15 409.26 772.45 421.57 773.16 435.1 766.27 446.73 756.94 457.83 743.67 465.83 730.94 467.27 718.21 466.68 708.24 459.38 700.69 448.7 691.06 437.42 681.13 424.03 672.79 411.69 663.11 399.34 659.83 390.24 662.91 385.04 667.53 379.17 677.11 376.11 688.61 376.63" stroke-dasharray="9 9" transform="rotate(81.84, 711, 400)" opacity="0.77"></path><path d="M691.73 387.96C700.42 387.16 710.29 389.36 720.11 393.85 730.87 397.94 742.24 404.93 750.98 414.22 758.81 423.51 760.38 433.41 756.68 441.65 751.66 449.53 743.08 455.06 733.48 455.94 723.87 455.69 715.07 450.71 707.65 443.18 699.14 435.25 690.64 425.52 683.96 416.21 674.99 403.3 680.02 389.09 691.73 387.96" stroke-dasharray="10 10" transform="rotate(85.56, 711, 400)" opacity="0.13"></path><path d="M698.51 399.29C710.3 397.97 728.42 405.7 739.81 418.16 749.62 430.61 744.48 443.21 731.73 444.61 718.97 444.04 703.96 432.05 695.13 419.57 684.88 407.09 686.72 398.75 698.51 399.29" stroke-dasharray="10 2" transform="rotate(89.28, 711, 400)" opacity="0.54"></path></g></svg>