<svg xmlns="http://www.w3.org/2000/svg" version="1.1" xmlns:xlink="http://www.w3.org/1999/xlink" xmlns:svgjs="http://svgjs.dev/svgjs" viewBox="0 0 2400 800"><defs><linearGradient x1="50%" y1="0%" x2="50%" y2="100%" id="sssurf-grad"><stop stop-color="hsl(185, 53%, 55%)" stop-opacity="1" offset="0%"></stop><stop stop-color="hsl(0, 73%, 55%)" stop-opacity="1" offset="100%"></stop></linearGradient></defs><g fill="url(#sssurf-grad)" transform="matrix(1,0,0,1,10.8282470703125,225)"><path d="M-10,10C33.75,14.583333333333332,114.58333333333334,40.333333333333336,200,32C285.41666666666663,23.666666666666664,316.66666666666663,-30,400,-30C483.33333333333337,-30,516.6666666666666,28.458333333333332,600,32C683.3333333333334,35.541666666666664,716.6666666666666,-13.625,800,-13C883.3333333333334,-12.375,916.6666666666666,35.208333333333336,1000,35C1083.3333333333333,34.791666666666664,1116.6666666666667,-14.208333333333334,1200,-14C1283.3333333333333,-13.791666666666666,1316.6666666666667,37.25,1400,36C1483.3333333333333,34.75,1516.6666666666667,-23.541666666666668,1600,-20C1683.3333333333333,-16.458333333333332,1716.6666666666667,52.166666666666664,1800,53C1883.3333333333333,53.833333333333336,1916.6666666666667,-17.041666666666668,2000,-16C2083.3333333333335,-14.958333333333334,2118.75,52.583333333333336,2200,58C2281.25,63.416666666666664,2296.25,-61.25,2390,10C2483.75,81.25,3252.0833333333335,214.58333333333331,2650,400C2047.9166666666665,585.4166666666667,156.25,795.8333333333334,-500,900" transform="matrix(1,0,0,1,0,35)" opacity="0.05"></path><path d="M-10,10C33.75,14.583333333333332,114.58333333333334,40.333333333333336,200,32C285.41666666666663,23.666666666666664,316.66666666666663,-30,400,-30C483.33333333333337,-30,516.6666666666666,28.458333333333332,600,32C683.3333333333334,35.541666666666664,716.6666666666666,-13.625,800,-13C883.3333333333334,-12.375,916.6666666666666,35.208333333333336,1000,35C1083.3333333333333,34.791666666666664,1116.6666666666667,-14.208333333333334,1200,-14C1283.3333333333333,-13.791666666666666,1316.6666666666667,37.25,1400,36C1483.3333333333333,34.75,1516.6666666666667,-23.541666666666668,1600,-20C1683.3333333333333,-16.458333333333332,1716.6666666666667,52.166666666666664,1800,53C1883.3333333333333,53.833333333333336,1916.6666666666667,-17.041666666666668,2000,-16C2083.3333333333335,-14.958333333333334,2118.75,52.583333333333336,2200,58C2281.25,63.416666666666664,2296.25,-61.25,2390,10C2483.75,81.25,3252.0833333333335,214.58333333333331,2650,400C2047.9166666666665,585.4166666666667,156.25,795.8333333333334,-500,900" transform="matrix(1,0,0,1,0,70)" opacity="0.21"></path><path d="M-10,10C33.75,14.583333333333332,114.58333333333334,40.333333333333336,200,32C285.41666666666663,23.666666666666664,316.66666666666663,-30,400,-30C483.33333333333337,-30,516.6666666666666,28.458333333333332,600,32C683.3333333333334,35.541666666666664,716.6666666666666,-13.625,800,-13C883.3333333333334,-12.375,916.6666666666666,35.208333333333336,1000,35C1083.3333333333333,34.791666666666664,1116.6666666666667,-14.208333333333334,1200,-14C1283.3333333333333,-13.791666666666666,1316.6666666666667,37.25,1400,36C1483.3333333333333,34.75,1516.6666666666667,-23.541666666666668,1600,-20C1683.3333333333333,-16.458333333333332,1716.6666666666667,52.166666666666664,1800,53C1883.3333333333333,53.833333333333336,1916.6666666666667,-17.041666666666668,2000,-16C2083.3333333333335,-14.958333333333334,2118.75,52.583333333333336,2200,58C2281.25,63.416666666666664,2296.25,-61.25,2390,10C2483.75,81.25,3252.0833333333335,214.58333333333331,2650,400C2047.9166666666665,585.4166666666667,156.25,795.8333333333334,-500,900" transform="matrix(1,0,0,1,0,105)" opacity="0.37"></path><path d="M-10,10C33.75,14.583333333333332,114.58333333333334,40.333333333333336,200,32C285.41666666666663,23.666666666666664,316.66666666666663,-30,400,-30C483.33333333333337,-30,516.6666666666666,28.458333333333332,600,32C683.3333333333334,35.541666666666664,716.6666666666666,-13.625,800,-13C883.3333333333334,-12.375,916.6666666666666,35.208333333333336,1000,35C1083.3333333333333,34.791666666666664,1116.6666666666667,-14.208333333333334,1200,-14C1283.3333333333333,-13.791666666666666,1316.6666666666667,37.25,1400,36C1483.3333333333333,34.75,1516.6666666666667,-23.541666666666668,1600,-20C1683.3333333333333,-16.458333333333332,1716.6666666666667,52.166666666666664,1800,53C1883.3333333333333,53.833333333333336,1916.6666666666667,-17.041666666666668,2000,-16C2083.3333333333335,-14.958333333333334,2118.75,52.583333333333336,2200,58C2281.25,63.416666666666664,2296.25,-61.25,2390,10C2483.75,81.25,3252.0833333333335,214.58333333333331,2650,400C2047.9166666666665,585.4166666666667,156.25,795.8333333333334,-500,900" transform="matrix(1,0,0,1,0,140)" opacity="0.53"></path><path d="M-10,10C33.75,14.583333333333332,114.58333333333334,40.333333333333336,200,32C285.41666666666663,23.666666666666664,316.66666666666663,-30,400,-30C483.33333333333337,-30,516.6666666666666,28.458333333333332,600,32C683.3333333333334,35.541666666666664,716.6666666666666,-13.625,800,-13C883.3333333333334,-12.375,916.6666666666666,35.208333333333336,1000,35C1083.3333333333333,34.791666666666664,1116.6666666666667,-14.208333333333334,1200,-14C1283.3333333333333,-13.791666666666666,1316.6666666666667,37.25,1400,36C1483.3333333333333,34.75,1516.6666666666667,-23.541666666666668,1600,-20C1683.3333333333333,-16.458333333333332,1716.6666666666667,52.166666666666664,1800,53C1883.3333333333333,53.833333333333336,1916.6666666666667,-17.041666666666668,2000,-16C2083.3333333333335,-14.958333333333334,2118.75,52.583333333333336,2200,58C2281.25,63.416666666666664,2296.25,-61.25,2390,10C2483.75,81.25,3252.0833333333335,214.58333333333331,2650,400C2047.9166666666665,585.4166666666667,156.25,795.8333333333334,-500,900" transform="matrix(1,0,0,1,0,175)" opacity="0.68"></path><path d="M-10,10C33.75,14.583333333333332,114.58333333333334,40.333333333333336,200,32C285.41666666666663,23.666666666666664,316.66666666666663,-30,400,-30C483.33333333333337,-30,516.6666666666666,28.458333333333332,600,32C683.3333333333334,35.541666666666664,716.6666666666666,-13.625,800,-13C883.3333333333334,-12.375,916.6666666666666,35.208333333333336,1000,35C1083.3333333333333,34.791666666666664,1116.6666666666667,-14.208333333333334,1200,-14C1283.3333333333333,-13.791666666666666,1316.6666666666667,37.25,1400,36C1483.3333333333333,34.75,1516.6666666666667,-23.541666666666668,1600,-20C1683.3333333333333,-16.458333333333332,1716.6666666666667,52.166666666666664,1800,53C1883.3333333333333,53.833333333333336,1916.6666666666667,-17.041666666666668,2000,-16C2083.3333333333335,-14.958333333333334,2118.75,52.583333333333336,2200,58C2281.25,63.416666666666664,2296.25,-61.25,2390,10C2483.75,81.25,3252.0833333333335,214.58333333333331,2650,400C2047.9166666666665,585.4166666666667,156.25,795.8333333333334,-500,900" transform="matrix(1,0,0,1,0,210)" opacity="0.84"></path><path d="M-10,10C33.75,14.583333333333332,114.58333333333334,40.333333333333336,200,32C285.41666666666663,23.666666666666664,316.66666666666663,-30,400,-30C483.33333333333337,-30,516.6666666666666,28.458333333333332,600,32C683.3333333333334,35.541666666666664,716.6666666666666,-13.625,800,-13C883.3333333333334,-12.375,916.6666666666666,35.208333333333336,1000,35C1083.3333333333333,34.791666666666664,1116.6666666666667,-14.208333333333334,1200,-14C1283.3333333333333,-13.791666666666666,1316.6666666666667,37.25,1400,36C1483.3333333333333,34.75,1516.6666666666667,-23.541666666666668,1600,-20C1683.3333333333333,-16.458333333333332,1716.6666666666667,52.166666666666664,1800,53C1883.3333333333333,53.833333333333336,1916.6666666666667,-17.041666666666668,2000,-16C2083.3333333333335,-14.958333333333334,2118.75,52.583333333333336,2200,58C2281.25,63.416666666666664,2296.25,-61.25,2390,10C2483.75,81.25,3252.0833333333335,214.58333333333331,2650,400C2047.9166666666665,585.4166666666667,156.25,795.8333333333334,-500,900" transform="matrix(1,0,0,1,0,245)" opacity="1"></path></g></svg>