<svg xmlns="http://www.w3.org/2000/svg" version="1.1" xmlns:xlink="http://www.w3.org/1999/xlink" xmlns:svgjs="http://svgjs.dev/svgjs" viewBox="0 0 800 800"><defs><filter id="uuunion-blur" x="-100%" y="-100%" width="400%" height="400%" color-interpolation-filters="sRGB">
        <feGaussianBlur in="SourceGraphic" stdDeviation="7.5 0" result="blur"></feGaussianBlur>
        <feDropShadow stdDeviation="12.307692307692308" in="blur" dx="10" dy="10" flood-color="hsl(205, 69%, 40%)" flood-opacity="0.25" x="0%" y="0%" width="100%" height="100%"></feDropShadow>
      </filter><filter id="uuunion-blur2" x="-100%" y="-100%" width="400%" height="400%" color-interpolation-filters="sRGB">
        <feGaussianBlur in="SourceGraphic" stdDeviation="7.5 0" result="blur"></feGaussianBlur>
        <feDropShadow stdDeviation="12.307692307692308" in="blur" dx="-10" dy="-10" flood-color="hsl(205, 69%, 40%)" flood-opacity="0.25" x="0%" y="0%" width="100%" height="100%"></feDropShadow>
      </filter><linearGradient gradientTransform="rotate(0, 0.5, 0.5)" x1="50%" y1="0%" x2="50%" y2="100%" id="uuunion-grad"><stop stop-color="hsl(205, 69%, 80%)" offset="10%"></stop><stop stop-color="hsl(205, 69%, 40%)" offset="90%"></stop></linearGradient><linearGradient gradientTransform="rotate(135, 0.5, 0.5)" x1="50%" y1="0%" x2="50%" y2="100%" id="uuunion-grad2"><stop stop-color="hsl(205, 69%, 80%)" offset="25%"></stop><stop stop-color="hsl(205, 69%, 40%)" offset="100%"></stop></linearGradient><linearGradient gradientTransform="rotate(333, 0.5, 0.5)" x1="50%" y1="0%" x2="50%" y2="100%" id="uuunion-grad3"><stop stop-color="hsl(205, 69%, 80%)" offset="0%"></stop><stop stop-color="hsl(205, 69%, 40%)" offset="75%"></stop></linearGradient></defs><path d="M-79.21 -80.25Q-64.49 -77.64 -49.77 -75.24 -35.05 -73.26 -20.33 -71.89 -5.61 -71.24 9.1 -71.37 23.82 -72.27 38.54 -73.86 53.26 -76 67.98 -78.5 82.7 -81.13 97.42 -83.66 112.14 -85.86 126.86 -87.54 141.59 -88.54 156.31 -88.78 171.03 -88.24 185.75 -86.96 200.47 -85.05 215.19 -82.7 229.91 -80.1 244.63 -77.5 259.35 -75.12 274.07 -73.17 288.79 -71.83 303.51 -71.23 318.23 -71.4 332.95 -72.34 347.67 -73.97 362.4 -76.14 377.12 -78.65 391.84 -81.28 406.56 -83.79 421.28 -85.97 436 -87.61 450.72 -88.57 465.44 -88.77 480.16 -88.18 494.88 -86.86 509.6 -84.93 524.32 -82.56 539.04 -79.96 553.76 -77.36 568.48 -74.99 583.21 -73.08 597.93 -71.78 612.65 -71.21 627.37 -71.43 642.09 -72.42 656.81 -74.08 671.53 -76.27 686.25 -78.79 700.97 -81.42 715.69 -83.92 730.41 -86.08 745.13 -87.68 759.85 -88.61 774.57 -88.76 789.3 -88.13 804.02 -86.77 818.74 -84.81 833.46 -82.42 848.18 -79.81 862.9 -77.22 857.28 -62.15 856.02 -47.07 859.34 -32 866.62 -16.93 876.46 -1.86 886.98 13.2 896.16 28.27 902.25 43.34 904.07 58.41 901.28 73.48 894.42 88.56 884.79 103.63 874.25 118.7 864.8 133.77 858.27 148.84 855.9 163.91 858.14 178.98 864.56 194.05 873.94 209.12 884.49 224.19 894.17 239.27 901.13 254.34 904.05 269.41 902.36 284.48 896.39 299.55 887.28 314.62 876.77 329.69 866.88 344.76 859.5 359.83 856.05 374.9 857.18 389.98 862.68 405.05 871.49 420.12 881.94 435.19 892.01 450.26 899.78 465.33 903.76 480.4 903.19 495.47 898.18 510.54 889.69 525.62 879.34 540.69 869.11 555.76 860.97 570.83 856.48 585.9 856.48 600.97 860.99 616.04 869.14 631.11 879.37 646.18 889.72 661.25 898.2 676.33 903.2 691.4 903.76 706.47 899.76 721.54 891.98 736.61 881.91 751.68 871.46 766.75 862.66 781.82 857.17 796.89 856.05 811.97 859.52 827.04 866.91 842.11 876.81 857.18 884.23 876.37 865.88 873.61 850.61 867.3 835.34 862.13 820.07 858.56 804.81 856.89 789.54 857.29 774.27 859.72 759 863.96 743.73 869.64 728.46 876.23 713.2 883.17 697.93 889.82 682.66 895.59 667.39 899.97 652.12 902.56 636.85 903.14 621.59 901.66 606.32 898.23 591.05 893.18 575.78 886.95 560.51 880.1 545.25 873.24 529.98 866.98 514.71 861.89 499.44 858.41 484.17 856.86 468.9 857.38 453.64 859.92 438.37 864.25 423.1 869.99 407.83 876.62 392.56 883.55 377.29 890.17 362.03 895.88 346.76 900.17 331.49 902.65 316.22 903.11 300.95 901.51 285.68 897.99 270.42 892.86 255.15 886.58 239.88 879.71 224.61 872.86 209.34 866.66 194.07 861.64 178.81 858.27 163.54 856.83 148.27 857.47 133 860.12 117.73 864.54 102.46 870.34 87.2 877.01 71.93 883.94 56.66 890.52 41.39 896.16 26.12 900.35 10.86 902.73 -4.4 903.08 -19.67 901.36 -34.94 897.74 -50.21 892.53 -65.48 886.2 -80.74 879.32 -80.33 864.32 -79.85 849.33 -79.4 834.34 -79.06 819.34 -78.9 804.35 -78.95 789.36 -79.2 774.36 -79.61 759.37 -80.08 744.38 -80.54 729.38 -80.9 714.39 -81.08 699.4 -81.05 684.4 -80.83 669.41 -80.44 654.42 -79.97 639.42 -79.5 624.43 -79.13 609.44 -78.92 594.44 -78.92 579.45 -79.13 564.46 -79.5 549.46 -79.96 534.47 -80.44 519.48 -80.83 504.48 -81.05 489.49 -81.08 474.49 -80.9 459.5 -80.54 444.51 -80.08 429.51 -79.61 414.52 -79.2 399.53 -78.95 384.53 -78.9 369.54 -79.06 354.55 -79.4 339.55 -79.85 324.56 -80.33 309.57 -80.74 294.57 -81.02 279.58 -81.09 264.59 -80.96 249.59 -80.64 234.6 -80.2 219.61 -79.72 204.61 -79.29 189.62 -79 174.63 -78.9 159.63 -79 144.64 -79.3 129.65 -79.73 114.65 -80.21 99.66 -80.65 84.67 -80.97 69.67 -81.09 54.68 -81.01 39.69 -80.73 24.69 -80.31 9.7 -79.83 -5.28 -79.38 -20.28 -79.05 -35.27 -78.9 -50.27 -78.96 -65.26 -79.21 -80.25" fill="url(#uuunion-grad)"></path><path d="M-79.21 -80.25Q-78.96 -65.26 -78.9 -50.27 -79.05 -35.27 -79.38 -20.28 -79.83 -5.28 -80.31 9.7 -80.73 24.69 -81.01 39.69 -81.09 54.68 -80.97 69.67 -80.65 84.67 -80.21 99.66 -79.73 114.65 -79.3 129.65 -79 144.64 -78.9 159.63 -79 174.63 -79.29 189.62 -79.72 204.61 -80.2 219.61 -80.64 234.6 -80.96 249.59 -81.09 264.59 -81.02 279.58 -80.74 294.57 -80.33 309.57 -79.85 324.56 -79.4 339.55 -79.06 354.55 -78.9 369.54 -78.95 384.53 -79.2 399.53 -69.39 402.71 -59.58 405.79 -49.77 408.64 -39.96 411.14 -30.15 413.2 -20.34 414.73 -1.94 415.91 1.23 415.98 13.3 408.99 25.35 401.07 37.41 392.33 49.5 382.94 61.67 373.1 73.95 363.03 86.36 352.98 98.93 343.17 111.67 333.83 124.59 325.13 137.69 317.23 150.94 310.21 164.34 304.11 177.85 298.91 191.43 294.53 205.04 290.85 218.63 287.7 232.15 284.88 245.54 282.18 258.75 279.37 271.75 276.25 284.48 272.63 296.92 268.34 309.05 263.29 320.86 257.4 332.35 250.67 343.54 243.13 354.47 234.88 365.16 226.05 375.69 216.8 386.11 207.34 396.49 197.85 406.91 188.54 417.46 179.59 428.2 171.17 439.22 163.4 450.58 156.37 462.34 150.11 474.55 144.61 487.23 139.82 500.4 135.63 514.06 131.9 528.19 128.49 542.74 125.19 557.66 121.84 572.87 118.26 588.29 114.27 603.83 109.76 619.37 104.62 634.8 98.79 650.02 92.26 664.92 85.06 679.39 77.25 693.37 68.95 706.76 60.28 719.53 51.41 731.63 42.5 743.06 33.71 753.84 25.2 764 17.1 773.6 9.51 782.73 2.52 791.49 -3.83 800 -9.57 789.16 -26.82 781.14 -44.07 778 -61.32 780.56 -78.57 788.16 -95.81 798.82 -113.06 809.79 -130.31 818.22 -147.56 802.99 -147.89 787.76 -147.53 772.53 -146.5 757.3 -144.9 742.07 -142.87 726.84 -140.58 711.6 -138.24 696.37 -136.05 681.14 -134.22 665.91 -132.89 650.68 -132.19 635.45 -132.18 620.22 -132.85 604.99 -134.16 589.76 -135.98 574.53 -138.16 559.3 -140.5 544.07 -142.79 528.84 -144.84 513.61 -146.46 498.38 -147.51 483.15 -147.89 467.92 -147.58 452.69 -146.6 437.46 -145.04 422.23 -143.03 407 -140.76 391.77 -138.41 376.54 -136.21 361.31 -134.34 346.08 -132.97 330.85 -132.22 315.62 -132.15 300.39 -132.78 285.16 -134.04 269.92 -135.83 254.69 -137.99 239.46 -140.32 224.23 -142.62 209 -144.7 193.77 -146.35 178.54 -147.45 163.31 -147.89 148.08 -147.63 132.85 -146.7 117.62 -145.18 102.39 -143.2 87.16 -140.93 71.93 -138.59 56.7 -136.37 41.47 -134.47 26.24 -133.05 11.01 -132.25 -4.21 -132.13 -19.44 -132.71 -34.67 -133.93 -49.9 -135.68 -65.13 -137.82 -80.36 -140.14 -95.59 -142.46 -110.82 -144.55 -126.05 -146.25 -135.47 -134.02 -117.19 -115.8 -107.51 -107.16 -97.96 -98.33 -88.52 -89.34 -79.21 -80.25" fill="url(#uuunion-grad2)" filter="url(#uuunion-blur)"></path><path d="M784.19 384.67Q794 385.89 803.81 387.68 813.62 389.95 823.43 392.62 833.24 395.59 843.06 398.74 852.87 401.93 862.68 405.05 871.49 420.12 881.94 435.19 892.01 450.26 899.78 465.33 903.76 480.4 903.19 495.47 898.18 510.54 889.69 525.62 879.34 540.69 869.11 555.76 860.97 570.83 856.48 585.9 856.48 600.97 860.99 616.04 869.14 631.11 879.37 646.18 889.72 661.25 898.2 676.33 903.2 691.4 903.76 706.47 899.76 721.54 891.98 736.61 881.91 751.68 871.46 766.75 862.66 781.82 857.17 796.89 856.05 811.97 859.52 827.04 866.91 842.11 876.81 857.18 884.86 876.65 868.39 874.72 854.38 868.78 840.37 863.68 826.36 859.81 812.34 857.46 798.33 856.81 784.32 857.9 770.31 860.66 756.3 864.88 742.29 870.23 728.27 876.32 714.26 882.69 700.25 888.85 686.24 894.34 672.23 898.76 658.21 901.76 644.2 903.12 630.19 902.74 616.18 900.65 602.17 897 588.16 892.07 574.14 886.23 560.13 879.92 546.12 873.62 532.11 867.8 518.1 862.89 504.08 859.27 490.07 857.22 476.06 856.88 462.05 858.28 448.04 861.31 434.03 865.76 420.01 871.27 406 877.45 391.99 883.81 377.98 889.89 363.97 895.22 349.95 899.41 335.94 902.13 321.93 903.19 307.92 902.49 293.91 900.11 279.9 896.21 265.88 891.09 251.87 885.13 237.86 878.79 223.85 872.53 209.84 866.84 195.82 862.14 181.81 858.79 167.8 857.03 153.79 857 139.78 858.7 125.76 862.01 111.75 866.67 97.74 872.34 83.73 878.58 69.72 884.93 55.71 890.9 41.69 896.06 27.68 900 6.55 897.74 -0.84 882.89 -1.12 872.74 -1.4 862.59 -1.64 852.44 -1.82 842.29 -1.71 827.07 -0.99 822 11.2 814.97 23.47 806.64 35.84 797.14 48.33 786.68 60.96 775.53 73.74 764.01 86.67 752.44 99.75 741.15 112.95 730.46 126.26 720.62 139.64 711.86 153.05 704.33 166.46 698.09 179.81 693.12 193.05 689.35 206.16 686.6 219.07 684.64 231.76 683.21 244.2 682.01 256.37 680.7 268.26 679 279.88 676.62 291.23 673.33 302.35 668.96 313.27 663.39 324.05 656.6 334.74 648.63 345.41 639.6 356.12 629.7 366.96 619.15 377.98 608.23 389.27 597.23 400.87 586.45 412.84 576.17 425.22 566.63 438.04 558.03 451.3 550.5 465 544.11 479.12 538.86 493.62 534.68 508.44 531.43 523.51 528.91 538.75 526.88 554.06 525.07 569.36 523.22 584.53 521.04 599.48 518.29 614.11 514.76 628.32 510.29 642.05 504.77 655.23 498.17 667.81 490.54 679.77 481.95 691.11 472.57 701.84 462.6 712.01 452.29 721.68 441.87 730.94 431.62 739.88 421.77 748.62 412.56 757.29 404.14 766.02 396.66 779.56 387.42 784.19 384.67" fill="url(#uuunion-grad3)" filter="url(#uuunion-blur2)"></path></svg>